<?xml version="1.0" encoding="utf-8" standalone="no"?>
<!DOCTYPE svg PUBLIC "-//W3C//DTD SVG 1.1//EN"
  "http://www.w3.org/Graphics/SVG/1.1/DTD/svg11.dtd">
<svg xmlns:xlink="http://www.w3.org/1999/xlink" width="360pt" height="360pt" viewBox="0 0 360 360" xmlns="http://www.w3.org/2000/svg" version="1.1">
 <metadata>
  <rdf:RDF xmlns:dc="http://purl.org/dc/elements/1.1/" xmlns:cc="http://creativecommons.org/ns#" xmlns:rdf="http://www.w3.org/1999/02/22-rdf-syntax-ns#">
   <cc:Work>
    <dc:type rdf:resource="http://purl.org/dc/dcmitype/StillImage"/>
    <dc:date>2024-07-16T19:14:18.092829</dc:date>
    <dc:format>image/svg+xml</dc:format>
    <dc:creator>
     <cc:Agent>
      <dc:title>Matplotlib v3.8.4, https://matplotlib.org/</dc:title>
     </cc:Agent>
    </dc:creator>
   </cc:Work>
  </rdf:RDF>
 </metadata>
 <defs>
  <style type="text/css">*{stroke-linejoin: round; stroke-linecap: butt}</style>
 </defs>
 <g id="figure_1">
  <g id="patch_1">
   <path d="M 0 360 
L 360 360 
L 360 0 
L 0 0 
z
" style="fill: #ffffff"/>
  </g>
  <g id="axes_1">
   <g id="patch_2">
    <path d="M 45 320.4 
L 324 320.4 
L 324 43.2 
L 45 43.2 
z
" style="fill: #ffffff"/>
   </g>
   <g id="patch_3">
    <path d="M 57.681818 320.4 
L 66.136364 320.4 
L 66.136364 241.506155 
L 57.681818 241.506155 
z
" clip-path="url(#pc125267b75)" style="fill: #1f77b4"/>
   </g>
   <g id="patch_4">
    <path d="M 66.136364 320.4 
L 74.590909 320.4 
L 74.590909 120.692596 
L 66.136364 120.692596 
z
" clip-path="url(#pc125267b75)" style="fill: #1f77b4"/>
   </g>
   <g id="patch_5">
    <path d="M 74.590909 320.4 
L 83.045455 320.4 
L 83.045455 56.4 
L 74.590909 56.4 
z
" clip-path="url(#pc125267b75)" style="fill: #1f77b4"/>
   </g>
   <g id="patch_6">
    <path d="M 83.045455 320.4 
L 91.5 320.4 
L 91.5 59.697056 
L 83.045455 59.697056 
z
" clip-path="url(#pc125267b75)" style="fill: #1f77b4"/>
   </g>
   <g id="patch_7">
    <path d="M 91.5 320.4 
L 99.954545 320.4 
L 99.954545 99.968243 
L 91.5 99.968243 
z
" clip-path="url(#pc125267b75)" style="fill: #1f77b4"/>
   </g>
   <g id="patch_8">
    <path d="M 99.954545 320.4 
L 108.409091 320.4 
L 108.409091 189.459768 
L 99.954545 189.459768 
z
" clip-path="url(#pc125267b75)" style="fill: #1f77b4"/>
   </g>
   <g id="patch_9">
    <path d="M 108.409091 320.4 
L 116.863636 320.4 
L 116.863636 249.277788 
L 108.409091 249.277788 
z
" clip-path="url(#pc125267b75)" style="fill: #1f77b4"/>
   </g>
   <g id="patch_10">
    <path d="M 116.863636 320.4 
L 125.318182 320.4 
L 125.318182 276.596253 
L 116.863636 276.596253 
z
" clip-path="url(#pc125267b75)" style="fill: #1f77b4"/>
   </g>
   <g id="patch_11">
    <path d="M 125.318182 320.4 
L 133.772727 320.4 
L 133.772727 298.262623 
L 125.318182 298.262623 
z
" clip-path="url(#pc125267b75)" style="fill: #1f77b4"/>
   </g>
   <g id="patch_12">
    <path d="M 133.772727 320.4 
L 142.227273 320.4 
L 142.227273 306.034255 
L 133.772727 306.034255 
z
" clip-path="url(#pc125267b75)" style="fill: #1f77b4"/>
   </g>
   <g id="patch_13">
    <path d="M 142.227273 320.4 
L 150.681818 320.4 
L 150.681818 313.805888 
L 142.227273 313.805888 
z
" clip-path="url(#pc125267b75)" style="fill: #1f77b4"/>
   </g>
   <g id="patch_14">
    <path d="M 150.681818 320.4 
L 159.136364 320.4 
L 159.136364 317.102944 
L 150.681818 317.102944 
z
" clip-path="url(#pc125267b75)" style="fill: #1f77b4"/>
   </g>
   <g id="patch_15">
    <path d="M 159.136364 320.4 
L 167.590909 320.4 
L 167.590909 318.751472 
L 159.136364 318.751472 
z
" clip-path="url(#pc125267b75)" style="fill: #1f77b4"/>
   </g>
   <g id="patch_16">
    <path d="M 167.590909 320.4 
L 176.045455 320.4 
L 176.045455 318.751472 
L 167.590909 318.751472 
z
" clip-path="url(#pc125267b75)" style="fill: #1f77b4"/>
   </g>
   <g id="patch_17">
    <path d="M 176.045455 320.4 
L 184.5 320.4 
L 184.5 319.457984 
L 176.045455 319.457984 
z
" clip-path="url(#pc125267b75)" style="fill: #1f77b4"/>
   </g>
   <g id="patch_18">
    <path d="M 184.5 320.4 
L 192.954545 320.4 
L 192.954545 318.986976 
L 184.5 318.986976 
z
" clip-path="url(#pc125267b75)" style="fill: #1f77b4"/>
   </g>
   <g id="patch_19">
    <path d="M 192.954545 320.4 
L 201.409091 320.4 
L 201.409091 319.693488 
L 192.954545 319.693488 
z
" clip-path="url(#pc125267b75)" style="fill: #1f77b4"/>
   </g>
   <g id="patch_20">
    <path d="M 201.409091 320.4 
L 209.863636 320.4 
L 209.863636 320.164496 
L 201.409091 320.164496 
z
" clip-path="url(#pc125267b75)" style="fill: #1f77b4"/>
   </g>
   <g id="patch_21">
    <path d="M 209.863636 320.4 
L 218.318182 320.4 
L 218.318182 320.4 
L 209.863636 320.4 
z
" clip-path="url(#pc125267b75)" style="fill: #1f77b4"/>
   </g>
   <g id="patch_22">
    <path d="M 218.318182 320.4 
L 226.772727 320.4 
L 226.772727 319.457984 
L 218.318182 319.457984 
z
" clip-path="url(#pc125267b75)" style="fill: #1f77b4"/>
   </g>
   <g id="patch_23">
    <path d="M 226.772727 320.4 
L 235.227273 320.4 
L 235.227273 319.928992 
L 226.772727 319.928992 
z
" clip-path="url(#pc125267b75)" style="fill: #1f77b4"/>
   </g>
   <g id="patch_24">
    <path d="M 235.227273 320.4 
L 243.681818 320.4 
L 243.681818 319.928992 
L 235.227273 319.928992 
z
" clip-path="url(#pc125267b75)" style="fill: #1f77b4"/>
   </g>
   <g id="patch_25">
    <path d="M 243.681818 320.4 
L 252.136364 320.4 
L 252.136364 320.164496 
L 243.681818 320.164496 
z
" clip-path="url(#pc125267b75)" style="fill: #1f77b4"/>
   </g>
   <g id="patch_26">
    <path d="M 252.136364 320.4 
L 260.590909 320.4 
L 260.590909 320.164496 
L 252.136364 320.164496 
z
" clip-path="url(#pc125267b75)" style="fill: #1f77b4"/>
   </g>
   <g id="patch_27">
    <path d="M 260.590909 320.4 
L 269.045455 320.4 
L 269.045455 320.164496 
L 260.590909 320.164496 
z
" clip-path="url(#pc125267b75)" style="fill: #1f77b4"/>
   </g>
   <g id="patch_28">
    <path d="M 269.045455 320.4 
L 277.5 320.4 
L 277.5 320.164496 
L 269.045455 320.164496 
z
" clip-path="url(#pc125267b75)" style="fill: #1f77b4"/>
   </g>
   <g id="patch_29">
    <path d="M 277.5 320.4 
L 285.954545 320.4 
L 285.954545 320.4 
L 277.5 320.4 
z
" clip-path="url(#pc125267b75)" style="fill: #1f77b4"/>
   </g>
   <g id="patch_30">
    <path d="M 285.954545 320.4 
L 294.409091 320.4 
L 294.409091 320.164496 
L 285.954545 320.164496 
z
" clip-path="url(#pc125267b75)" style="fill: #1f77b4"/>
   </g>
   <g id="patch_31">
    <path d="M 294.409091 320.4 
L 302.863636 320.4 
L 302.863636 320.164496 
L 294.409091 320.164496 
z
" clip-path="url(#pc125267b75)" style="fill: #1f77b4"/>
   </g>
   <g id="patch_32">
    <path d="M 302.863636 320.4 
L 311.318182 320.4 
L 311.318182 319.928992 
L 302.863636 319.928992 
z
" clip-path="url(#pc125267b75)" style="fill: #1f77b4"/>
   </g>
   <g id="matplotlib.axis_1">
    <g id="xtick_1">
     <g id="line2d_1">
      <defs>
       <path id="m14e6b84776" d="M 0 0 
L 0 3.5 
" style="stroke: #000000; stroke-width: 0.8"/>
      </defs>
      <g>
       <use xlink:href="#m14e6b84776" x="57.246473" y="320.4" style="stroke: #000000; stroke-width: 0.8"/>
      </g>
     </g>
     <g id="text_1">
      <!-- 0 -->
      <g transform="translate(54.065223 334.998438) scale(0.1 -0.1)">
       <defs>
        <path id="DejaVuSans-30" d="M 2034 4250 
Q 1547 4250 1301 3770 
Q 1056 3291 1056 2328 
Q 1056 1369 1301 889 
Q 1547 409 2034 409 
Q 2525 409 2770 889 
Q 3016 1369 3016 2328 
Q 3016 3291 2770 3770 
Q 2525 4250 2034 4250 
z
M 2034 4750 
Q 2819 4750 3233 4129 
Q 3647 3509 3647 2328 
Q 3647 1150 3233 529 
Q 2819 -91 2034 -91 
Q 1250 -91 836 529 
Q 422 1150 422 2328 
Q 422 3509 836 4129 
Q 1250 4750 2034 4750 
z
" transform="scale(0.015625)"/>
       </defs>
       <use xlink:href="#DejaVuSans-30"/>
      </g>
     </g>
    </g>
    <g id="xtick_2">
     <g id="line2d_2">
      <g>
       <use xlink:href="#m14e6b84776" x="114.821225" y="320.4" style="stroke: #000000; stroke-width: 0.8"/>
      </g>
     </g>
     <g id="text_2">
      <!-- 2 -->
      <g transform="translate(111.639975 334.998438) scale(0.1 -0.1)">
       <defs>
        <path id="DejaVuSans-32" d="M 1228 531 
L 3431 531 
L 3431 0 
L 469 0 
L 469 531 
Q 828 903 1448 1529 
Q 2069 2156 2228 2338 
Q 2531 2678 2651 2914 
Q 2772 3150 2772 3378 
Q 2772 3750 2511 3984 
Q 2250 4219 1831 4219 
Q 1534 4219 1204 4116 
Q 875 4013 500 3803 
L 500 4441 
Q 881 4594 1212 4672 
Q 1544 4750 1819 4750 
Q 2544 4750 2975 4387 
Q 3406 4025 3406 3419 
Q 3406 3131 3298 2873 
Q 3191 2616 2906 2266 
Q 2828 2175 2409 1742 
Q 1991 1309 1228 531 
z
" transform="scale(0.015625)"/>
       </defs>
       <use xlink:href="#DejaVuSans-32"/>
      </g>
     </g>
    </g>
    <g id="xtick_3">
     <g id="line2d_3">
      <g>
       <use xlink:href="#m14e6b84776" x="172.395978" y="320.4" style="stroke: #000000; stroke-width: 0.8"/>
      </g>
     </g>
     <g id="text_3">
      <!-- 4 -->
      <g transform="translate(169.214728 334.998438) scale(0.1 -0.1)">
       <defs>
        <path id="DejaVuSans-34" d="M 2419 4116 
L 825 1625 
L 2419 1625 
L 2419 4116 
z
M 2253 4666 
L 3047 4666 
L 3047 1625 
L 3713 1625 
L 3713 1100 
L 3047 1100 
L 3047 0 
L 2419 0 
L 2419 1100 
L 313 1100 
L 313 1709 
L 2253 4666 
z
" transform="scale(0.015625)"/>
       </defs>
       <use xlink:href="#DejaVuSans-34"/>
      </g>
     </g>
    </g>
    <g id="xtick_4">
     <g id="line2d_4">
      <g>
       <use xlink:href="#m14e6b84776" x="229.97073" y="320.4" style="stroke: #000000; stroke-width: 0.8"/>
      </g>
     </g>
     <g id="text_4">
      <!-- 6 -->
      <g transform="translate(226.78948 334.998438) scale(0.1 -0.1)">
       <defs>
        <path id="DejaVuSans-36" d="M 2113 2584 
Q 1688 2584 1439 2293 
Q 1191 2003 1191 1497 
Q 1191 994 1439 701 
Q 1688 409 2113 409 
Q 2538 409 2786 701 
Q 3034 994 3034 1497 
Q 3034 2003 2786 2293 
Q 2538 2584 2113 2584 
z
M 3366 4563 
L 3366 3988 
Q 3128 4100 2886 4159 
Q 2644 4219 2406 4219 
Q 1781 4219 1451 3797 
Q 1122 3375 1075 2522 
Q 1259 2794 1537 2939 
Q 1816 3084 2150 3084 
Q 2853 3084 3261 2657 
Q 3669 2231 3669 1497 
Q 3669 778 3244 343 
Q 2819 -91 2113 -91 
Q 1303 -91 875 529 
Q 447 1150 447 2328 
Q 447 3434 972 4092 
Q 1497 4750 2381 4750 
Q 2619 4750 2861 4703 
Q 3103 4656 3366 4563 
z
" transform="scale(0.015625)"/>
       </defs>
       <use xlink:href="#DejaVuSans-36"/>
      </g>
     </g>
    </g>
    <g id="xtick_5">
     <g id="line2d_5">
      <g>
       <use xlink:href="#m14e6b84776" x="287.545482" y="320.4" style="stroke: #000000; stroke-width: 0.8"/>
      </g>
     </g>
     <g id="text_5">
      <!-- 8 -->
      <g transform="translate(284.364232 334.998438) scale(0.1 -0.1)">
       <defs>
        <path id="DejaVuSans-38" d="M 2034 2216 
Q 1584 2216 1326 1975 
Q 1069 1734 1069 1313 
Q 1069 891 1326 650 
Q 1584 409 2034 409 
Q 2484 409 2743 651 
Q 3003 894 3003 1313 
Q 3003 1734 2745 1975 
Q 2488 2216 2034 2216 
z
M 1403 2484 
Q 997 2584 770 2862 
Q 544 3141 544 3541 
Q 544 4100 942 4425 
Q 1341 4750 2034 4750 
Q 2731 4750 3128 4425 
Q 3525 4100 3525 3541 
Q 3525 3141 3298 2862 
Q 3072 2584 2669 2484 
Q 3125 2378 3379 2068 
Q 3634 1759 3634 1313 
Q 3634 634 3220 271 
Q 2806 -91 2034 -91 
Q 1263 -91 848 271 
Q 434 634 434 1313 
Q 434 1759 690 2068 
Q 947 2378 1403 2484 
z
M 1172 3481 
Q 1172 3119 1398 2916 
Q 1625 2713 2034 2713 
Q 2441 2713 2670 2916 
Q 2900 3119 2900 3481 
Q 2900 3844 2670 4047 
Q 2441 4250 2034 4250 
Q 1625 4250 1398 4047 
Q 1172 3844 1172 3481 
z
" transform="scale(0.015625)"/>
       </defs>
       <use xlink:href="#DejaVuSans-38"/>
      </g>
     </g>
    </g>
    <g id="text_6">
     <!-- Eucledian distance: $\|\mathbf{p} - \mathbf{\hat{p}}\|$ -->
     <g transform="translate(115.8 349.778125) scale(0.1 -0.1)">
      <defs>
       <path id="DejaVuSans-45" d="M 628 4666 
L 3578 4666 
L 3578 4134 
L 1259 4134 
L 1259 2753 
L 3481 2753 
L 3481 2222 
L 1259 2222 
L 1259 531 
L 3634 531 
L 3634 0 
L 628 0 
L 628 4666 
z
" transform="scale(0.015625)"/>
       <path id="DejaVuSans-75" d="M 544 1381 
L 544 3500 
L 1119 3500 
L 1119 1403 
Q 1119 906 1312 657 
Q 1506 409 1894 409 
Q 2359 409 2629 706 
Q 2900 1003 2900 1516 
L 2900 3500 
L 3475 3500 
L 3475 0 
L 2900 0 
L 2900 538 
Q 2691 219 2414 64 
Q 2138 -91 1772 -91 
Q 1169 -91 856 284 
Q 544 659 544 1381 
z
M 1991 3584 
L 1991 3584 
z
" transform="scale(0.015625)"/>
       <path id="DejaVuSans-63" d="M 3122 3366 
L 3122 2828 
Q 2878 2963 2633 3030 
Q 2388 3097 2138 3097 
Q 1578 3097 1268 2742 
Q 959 2388 959 1747 
Q 959 1106 1268 751 
Q 1578 397 2138 397 
Q 2388 397 2633 464 
Q 2878 531 3122 666 
L 3122 134 
Q 2881 22 2623 -34 
Q 2366 -91 2075 -91 
Q 1284 -91 818 406 
Q 353 903 353 1747 
Q 353 2603 823 3093 
Q 1294 3584 2113 3584 
Q 2378 3584 2631 3529 
Q 2884 3475 3122 3366 
z
" transform="scale(0.015625)"/>
       <path id="DejaVuSans-6c" d="M 603 4863 
L 1178 4863 
L 1178 0 
L 603 0 
L 603 4863 
z
" transform="scale(0.015625)"/>
       <path id="DejaVuSans-65" d="M 3597 1894 
L 3597 1613 
L 953 1613 
Q 991 1019 1311 708 
Q 1631 397 2203 397 
Q 2534 397 2845 478 
Q 3156 559 3463 722 
L 3463 178 
Q 3153 47 2828 -22 
Q 2503 -91 2169 -91 
Q 1331 -91 842 396 
Q 353 884 353 1716 
Q 353 2575 817 3079 
Q 1281 3584 2069 3584 
Q 2775 3584 3186 3129 
Q 3597 2675 3597 1894 
z
M 3022 2063 
Q 3016 2534 2758 2815 
Q 2500 3097 2075 3097 
Q 1594 3097 1305 2825 
Q 1016 2553 972 2059 
L 3022 2063 
z
" transform="scale(0.015625)"/>
       <path id="DejaVuSans-64" d="M 2906 2969 
L 2906 4863 
L 3481 4863 
L 3481 0 
L 2906 0 
L 2906 525 
Q 2725 213 2448 61 
Q 2172 -91 1784 -91 
Q 1150 -91 751 415 
Q 353 922 353 1747 
Q 353 2572 751 3078 
Q 1150 3584 1784 3584 
Q 2172 3584 2448 3432 
Q 2725 3281 2906 2969 
z
M 947 1747 
Q 947 1113 1208 752 
Q 1469 391 1925 391 
Q 2381 391 2643 752 
Q 2906 1113 2906 1747 
Q 2906 2381 2643 2742 
Q 2381 3103 1925 3103 
Q 1469 3103 1208 2742 
Q 947 2381 947 1747 
z
" transform="scale(0.015625)"/>
       <path id="DejaVuSans-69" d="M 603 3500 
L 1178 3500 
L 1178 0 
L 603 0 
L 603 3500 
z
M 603 4863 
L 1178 4863 
L 1178 4134 
L 603 4134 
L 603 4863 
z
" transform="scale(0.015625)"/>
       <path id="DejaVuSans-61" d="M 2194 1759 
Q 1497 1759 1228 1600 
Q 959 1441 959 1056 
Q 959 750 1161 570 
Q 1363 391 1709 391 
Q 2188 391 2477 730 
Q 2766 1069 2766 1631 
L 2766 1759 
L 2194 1759 
z
M 3341 1997 
L 3341 0 
L 2766 0 
L 2766 531 
Q 2569 213 2275 61 
Q 1981 -91 1556 -91 
Q 1019 -91 701 211 
Q 384 513 384 1019 
Q 384 1609 779 1909 
Q 1175 2209 1959 2209 
L 2766 2209 
L 2766 2266 
Q 2766 2663 2505 2880 
Q 2244 3097 1772 3097 
Q 1472 3097 1187 3025 
Q 903 2953 641 2809 
L 641 3341 
Q 956 3463 1253 3523 
Q 1550 3584 1831 3584 
Q 2591 3584 2966 3190 
Q 3341 2797 3341 1997 
z
" transform="scale(0.015625)"/>
       <path id="DejaVuSans-6e" d="M 3513 2113 
L 3513 0 
L 2938 0 
L 2938 2094 
Q 2938 2591 2744 2837 
Q 2550 3084 2163 3084 
Q 1697 3084 1428 2787 
Q 1159 2491 1159 1978 
L 1159 0 
L 581 0 
L 581 3500 
L 1159 3500 
L 1159 2956 
Q 1366 3272 1645 3428 
Q 1925 3584 2291 3584 
Q 2894 3584 3203 3211 
Q 3513 2838 3513 2113 
z
" transform="scale(0.015625)"/>
       <path id="DejaVuSans-20" transform="scale(0.015625)"/>
       <path id="DejaVuSans-73" d="M 2834 3397 
L 2834 2853 
Q 2591 2978 2328 3040 
Q 2066 3103 1784 3103 
Q 1356 3103 1142 2972 
Q 928 2841 928 2578 
Q 928 2378 1081 2264 
Q 1234 2150 1697 2047 
L 1894 2003 
Q 2506 1872 2764 1633 
Q 3022 1394 3022 966 
Q 3022 478 2636 193 
Q 2250 -91 1575 -91 
Q 1294 -91 989 -36 
Q 684 19 347 128 
L 347 722 
Q 666 556 975 473 
Q 1284 391 1588 391 
Q 1994 391 2212 530 
Q 2431 669 2431 922 
Q 2431 1156 2273 1281 
Q 2116 1406 1581 1522 
L 1381 1569 
Q 847 1681 609 1914 
Q 372 2147 372 2553 
Q 372 3047 722 3315 
Q 1072 3584 1716 3584 
Q 2034 3584 2315 3537 
Q 2597 3491 2834 3397 
z
" transform="scale(0.015625)"/>
       <path id="DejaVuSans-74" d="M 1172 4494 
L 1172 3500 
L 2356 3500 
L 2356 3053 
L 1172 3053 
L 1172 1153 
Q 1172 725 1289 603 
Q 1406 481 1766 481 
L 2356 481 
L 2356 0 
L 1766 0 
Q 1100 0 847 248 
Q 594 497 594 1153 
L 594 3053 
L 172 3053 
L 172 3500 
L 594 3500 
L 594 4494 
L 1172 4494 
z
" transform="scale(0.015625)"/>
       <path id="DejaVuSans-3a" d="M 750 794 
L 1409 794 
L 1409 0 
L 750 0 
L 750 794 
z
M 750 3309 
L 1409 3309 
L 1409 2516 
L 750 2516 
L 750 3309 
z
" transform="scale(0.015625)"/>
       <path id="DejaVuSans-2016" d="M 1344 4891 
L 1344 -1509 
L 813 -1509 
L 813 4891 
L 1344 4891 
z
M 2375 4891 
L 2375 -1509 
L 1844 -1509 
L 1844 4891 
L 2375 4891 
z
" transform="scale(0.015625)"/>
       <path id="DejaVuSans-Bold-70" d="M 1656 506 
L 1656 -1331 
L 538 -1331 
L 538 3500 
L 1656 3500 
L 1656 2988 
Q 1888 3294 2169 3439 
Q 2450 3584 2816 3584 
Q 3463 3584 3878 3070 
Q 4294 2556 4294 1747 
Q 4294 938 3878 423 
Q 3463 -91 2816 -91 
Q 2450 -91 2169 54 
Q 1888 200 1656 506 
z
M 2400 2772 
Q 2041 2772 1848 2508 
Q 1656 2244 1656 1747 
Q 1656 1250 1848 986 
Q 2041 722 2400 722 
Q 2759 722 2948 984 
Q 3138 1247 3138 1747 
Q 3138 2247 2948 2509 
Q 2759 2772 2400 2772 
z
" transform="scale(0.015625)"/>
       <path id="DejaVuSans-2212" d="M 678 2272 
L 4684 2272 
L 4684 1741 
L 678 1741 
L 678 2272 
z
" transform="scale(0.015625)"/>
       <path id="DejaVuSans-Bold-302" d="M -1984 5119 
L -1228 5119 
L -428 3944 
L -984 3944 
L -1606 4647 
L -2228 3944 
L -2784 3944 
L -1984 5119 
z
" transform="scale(0.015625)"/>
      </defs>
      <use xlink:href="#DejaVuSans-45" transform="translate(0 0.140625)"/>
      <use xlink:href="#DejaVuSans-75" transform="translate(63.183594 0.140625)"/>
      <use xlink:href="#DejaVuSans-63" transform="translate(126.5625 0.140625)"/>
      <use xlink:href="#DejaVuSans-6c" transform="translate(181.542969 0.140625)"/>
      <use xlink:href="#DejaVuSans-65" transform="translate(209.326172 0.140625)"/>
      <use xlink:href="#DejaVuSans-64" transform="translate(270.849609 0.140625)"/>
      <use xlink:href="#DejaVuSans-69" transform="translate(334.326172 0.140625)"/>
      <use xlink:href="#DejaVuSans-61" transform="translate(362.109375 0.140625)"/>
      <use xlink:href="#DejaVuSans-6e" transform="translate(423.388672 0.140625)"/>
      <use xlink:href="#DejaVuSans-20" transform="translate(486.767578 0.140625)"/>
      <use xlink:href="#DejaVuSans-64" transform="translate(518.554688 0.140625)"/>
      <use xlink:href="#DejaVuSans-69" transform="translate(582.03125 0.140625)"/>
      <use xlink:href="#DejaVuSans-73" transform="translate(609.814453 0.140625)"/>
      <use xlink:href="#DejaVuSans-74" transform="translate(661.914062 0.140625)"/>
      <use xlink:href="#DejaVuSans-61" transform="translate(701.123047 0.140625)"/>
      <use xlink:href="#DejaVuSans-6e" transform="translate(762.402344 0.140625)"/>
      <use xlink:href="#DejaVuSans-63" transform="translate(825.78125 0.140625)"/>
      <use xlink:href="#DejaVuSans-65" transform="translate(880.761719 0.140625)"/>
      <use xlink:href="#DejaVuSans-3a" transform="translate(942.285156 0.140625)"/>
      <use xlink:href="#DejaVuSans-20" transform="translate(975.976562 0.140625)"/>
      <use xlink:href="#DejaVuSans-2016" transform="translate(1007.763672 0.140625)"/>
      <use xlink:href="#DejaVuSans-Bold-70" transform="translate(1057.763672 0.140625)"/>
      <use xlink:href="#DejaVuSans-2212" transform="translate(1148.828125 0.140625)"/>
      <use xlink:href="#DejaVuSans-Bold-302" transform="translate(1321.495117 7.015625)"/>
      <use xlink:href="#DejaVuSans-Bold-70" transform="translate(1252.099609 0.140625)"/>
      <use xlink:href="#DejaVuSans-2016" transform="translate(1323.681641 0.140625)"/>
     </g>
    </g>
   </g>
   <g id="matplotlib.axis_2">
    <g id="ytick_1">
     <g id="line2d_6">
      <defs>
       <path id="mf86ce18fb3" d="M 0 0 
L -3.5 0 
" style="stroke: #000000; stroke-width: 0.8"/>
      </defs>
      <g>
       <use xlink:href="#mf86ce18fb3" x="45" y="320.4" style="stroke: #000000; stroke-width: 0.8"/>
      </g>
     </g>
     <g id="text_7">
      <!-- 0 -->
      <g transform="translate(31.6375 324.199219) scale(0.1 -0.1)">
       <use xlink:href="#DejaVuSans-30"/>
      </g>
     </g>
    </g>
    <g id="ytick_2">
     <g id="line2d_7">
      <g>
       <use xlink:href="#mf86ce18fb3" x="45" y="273.299197" style="stroke: #000000; stroke-width: 0.8"/>
      </g>
     </g>
     <g id="text_8">
      <!-- 200 -->
      <g transform="translate(18.9125 277.098416) scale(0.1 -0.1)">
       <use xlink:href="#DejaVuSans-32"/>
       <use xlink:href="#DejaVuSans-30" x="63.623047"/>
       <use xlink:href="#DejaVuSans-30" x="127.246094"/>
      </g>
     </g>
    </g>
    <g id="ytick_3">
     <g id="line2d_8">
      <g>
       <use xlink:href="#mf86ce18fb3" x="45" y="226.198394" style="stroke: #000000; stroke-width: 0.8"/>
      </g>
     </g>
     <g id="text_9">
      <!-- 400 -->
      <g transform="translate(18.9125 229.997613) scale(0.1 -0.1)">
       <use xlink:href="#DejaVuSans-34"/>
       <use xlink:href="#DejaVuSans-30" x="63.623047"/>
       <use xlink:href="#DejaVuSans-30" x="127.246094"/>
      </g>
     </g>
    </g>
    <g id="ytick_4">
     <g id="line2d_9">
      <g>
       <use xlink:href="#mf86ce18fb3" x="45" y="179.097591" style="stroke: #000000; stroke-width: 0.8"/>
      </g>
     </g>
     <g id="text_10">
      <!-- 600 -->
      <g transform="translate(18.9125 182.89681) scale(0.1 -0.1)">
       <use xlink:href="#DejaVuSans-36"/>
       <use xlink:href="#DejaVuSans-30" x="63.623047"/>
       <use xlink:href="#DejaVuSans-30" x="127.246094"/>
      </g>
     </g>
    </g>
    <g id="ytick_5">
     <g id="line2d_10">
      <g>
       <use xlink:href="#mf86ce18fb3" x="45" y="131.996789" style="stroke: #000000; stroke-width: 0.8"/>
      </g>
     </g>
     <g id="text_11">
      <!-- 800 -->
      <g transform="translate(18.9125 135.796007) scale(0.1 -0.1)">
       <use xlink:href="#DejaVuSans-38"/>
       <use xlink:href="#DejaVuSans-30" x="63.623047"/>
       <use xlink:href="#DejaVuSans-30" x="127.246094"/>
      </g>
     </g>
    </g>
    <g id="ytick_6">
     <g id="line2d_11">
      <g>
       <use xlink:href="#mf86ce18fb3" x="45" y="84.895986" style="stroke: #000000; stroke-width: 0.8"/>
      </g>
     </g>
     <g id="text_12">
      <!-- 1000 -->
      <g transform="translate(12.55 88.695204) scale(0.1 -0.1)">
       <defs>
        <path id="DejaVuSans-31" d="M 794 531 
L 1825 531 
L 1825 4091 
L 703 3866 
L 703 4441 
L 1819 4666 
L 2450 4666 
L 2450 531 
L 3481 531 
L 3481 0 
L 794 0 
L 794 531 
z
" transform="scale(0.015625)"/>
       </defs>
       <use xlink:href="#DejaVuSans-31"/>
       <use xlink:href="#DejaVuSans-30" x="63.623047"/>
       <use xlink:href="#DejaVuSans-30" x="127.246094"/>
       <use xlink:href="#DejaVuSans-30" x="190.869141"/>
      </g>
     </g>
    </g>
   </g>
   <g id="patch_33">
    <path d="M 45 320.4 
L 45 43.2 
" style="fill: none; stroke: #000000; stroke-width: 0.8; stroke-linejoin: miter; stroke-linecap: square"/>
   </g>
   <g id="patch_34">
    <path d="M 324 320.4 
L 324 43.2 
" style="fill: none; stroke: #000000; stroke-width: 0.8; stroke-linejoin: miter; stroke-linecap: square"/>
   </g>
   <g id="patch_35">
    <path d="M 45 320.4 
L 324 320.4 
" style="fill: none; stroke: #000000; stroke-width: 0.8; stroke-linejoin: miter; stroke-linecap: square"/>
   </g>
   <g id="patch_36">
    <path d="M 45 43.2 
L 324 43.2 
" style="fill: none; stroke: #000000; stroke-width: 0.8; stroke-linejoin: miter; stroke-linecap: square"/>
   </g>
   <g id="text_13">
    <!-- Position estimation distribution -->
    <g transform="translate(91.287188 37.2) scale(0.12 -0.12)">
     <defs>
      <path id="DejaVuSans-50" d="M 1259 4147 
L 1259 2394 
L 2053 2394 
Q 2494 2394 2734 2622 
Q 2975 2850 2975 3272 
Q 2975 3691 2734 3919 
Q 2494 4147 2053 4147 
L 1259 4147 
z
M 628 4666 
L 2053 4666 
Q 2838 4666 3239 4311 
Q 3641 3956 3641 3272 
Q 3641 2581 3239 2228 
Q 2838 1875 2053 1875 
L 1259 1875 
L 1259 0 
L 628 0 
L 628 4666 
z
" transform="scale(0.015625)"/>
      <path id="DejaVuSans-6f" d="M 1959 3097 
Q 1497 3097 1228 2736 
Q 959 2375 959 1747 
Q 959 1119 1226 758 
Q 1494 397 1959 397 
Q 2419 397 2687 759 
Q 2956 1122 2956 1747 
Q 2956 2369 2687 2733 
Q 2419 3097 1959 3097 
z
M 1959 3584 
Q 2709 3584 3137 3096 
Q 3566 2609 3566 1747 
Q 3566 888 3137 398 
Q 2709 -91 1959 -91 
Q 1206 -91 779 398 
Q 353 888 353 1747 
Q 353 2609 779 3096 
Q 1206 3584 1959 3584 
z
" transform="scale(0.015625)"/>
      <path id="DejaVuSans-6d" d="M 3328 2828 
Q 3544 3216 3844 3400 
Q 4144 3584 4550 3584 
Q 5097 3584 5394 3201 
Q 5691 2819 5691 2113 
L 5691 0 
L 5113 0 
L 5113 2094 
Q 5113 2597 4934 2840 
Q 4756 3084 4391 3084 
Q 3944 3084 3684 2787 
Q 3425 2491 3425 1978 
L 3425 0 
L 2847 0 
L 2847 2094 
Q 2847 2600 2669 2842 
Q 2491 3084 2119 3084 
Q 1678 3084 1418 2786 
Q 1159 2488 1159 1978 
L 1159 0 
L 581 0 
L 581 3500 
L 1159 3500 
L 1159 2956 
Q 1356 3278 1631 3431 
Q 1906 3584 2284 3584 
Q 2666 3584 2933 3390 
Q 3200 3197 3328 2828 
z
" transform="scale(0.015625)"/>
      <path id="DejaVuSans-72" d="M 2631 2963 
Q 2534 3019 2420 3045 
Q 2306 3072 2169 3072 
Q 1681 3072 1420 2755 
Q 1159 2438 1159 1844 
L 1159 0 
L 581 0 
L 581 3500 
L 1159 3500 
L 1159 2956 
Q 1341 3275 1631 3429 
Q 1922 3584 2338 3584 
Q 2397 3584 2469 3576 
Q 2541 3569 2628 3553 
L 2631 2963 
z
" transform="scale(0.015625)"/>
      <path id="DejaVuSans-62" d="M 3116 1747 
Q 3116 2381 2855 2742 
Q 2594 3103 2138 3103 
Q 1681 3103 1420 2742 
Q 1159 2381 1159 1747 
Q 1159 1113 1420 752 
Q 1681 391 2138 391 
Q 2594 391 2855 752 
Q 3116 1113 3116 1747 
z
M 1159 2969 
Q 1341 3281 1617 3432 
Q 1894 3584 2278 3584 
Q 2916 3584 3314 3078 
Q 3713 2572 3713 1747 
Q 3713 922 3314 415 
Q 2916 -91 2278 -91 
Q 1894 -91 1617 61 
Q 1341 213 1159 525 
L 1159 0 
L 581 0 
L 581 4863 
L 1159 4863 
L 1159 2969 
z
" transform="scale(0.015625)"/>
     </defs>
     <use xlink:href="#DejaVuSans-50"/>
     <use xlink:href="#DejaVuSans-6f" x="56.677734"/>
     <use xlink:href="#DejaVuSans-73" x="117.859375"/>
     <use xlink:href="#DejaVuSans-69" x="169.958984"/>
     <use xlink:href="#DejaVuSans-74" x="197.742188"/>
     <use xlink:href="#DejaVuSans-69" x="236.951172"/>
     <use xlink:href="#DejaVuSans-6f" x="264.734375"/>
     <use xlink:href="#DejaVuSans-6e" x="325.916016"/>
     <use xlink:href="#DejaVuSans-20" x="389.294922"/>
     <use xlink:href="#DejaVuSans-65" x="421.082031"/>
     <use xlink:href="#DejaVuSans-73" x="482.605469"/>
     <use xlink:href="#DejaVuSans-74" x="534.705078"/>
     <use xlink:href="#DejaVuSans-69" x="573.914062"/>
     <use xlink:href="#DejaVuSans-6d" x="601.697266"/>
     <use xlink:href="#DejaVuSans-61" x="699.109375"/>
     <use xlink:href="#DejaVuSans-74" x="760.388672"/>
     <use xlink:href="#DejaVuSans-69" x="799.597656"/>
     <use xlink:href="#DejaVuSans-6f" x="827.380859"/>
     <use xlink:href="#DejaVuSans-6e" x="888.5625"/>
     <use xlink:href="#DejaVuSans-20" x="951.941406"/>
     <use xlink:href="#DejaVuSans-64" x="983.728516"/>
     <use xlink:href="#DejaVuSans-69" x="1047.205078"/>
     <use xlink:href="#DejaVuSans-73" x="1074.988281"/>
     <use xlink:href="#DejaVuSans-74" x="1127.087891"/>
     <use xlink:href="#DejaVuSans-72" x="1166.296875"/>
     <use xlink:href="#DejaVuSans-69" x="1207.410156"/>
     <use xlink:href="#DejaVuSans-62" x="1235.193359"/>
     <use xlink:href="#DejaVuSans-75" x="1298.669922"/>
     <use xlink:href="#DejaVuSans-74" x="1362.048828"/>
     <use xlink:href="#DejaVuSans-69" x="1401.257812"/>
     <use xlink:href="#DejaVuSans-6f" x="1429.041016"/>
     <use xlink:href="#DejaVuSans-6e" x="1490.222656"/>
    </g>
   </g>
  </g>
 </g>
 <defs>
  <clipPath id="pc125267b75">
   <rect x="45" y="43.2" width="279" height="277.2"/>
  </clipPath>
 </defs>
</svg>
