<?xml version="1.0" encoding="utf-8" standalone="no"?>
<!DOCTYPE svg PUBLIC "-//W3C//DTD SVG 1.1//EN"
  "http://www.w3.org/Graphics/SVG/1.1/DTD/svg11.dtd">
<svg xmlns:xlink="http://www.w3.org/1999/xlink" width="360pt" height="360pt" viewBox="0 0 360 360" xmlns="http://www.w3.org/2000/svg" version="1.1">
 <metadata>
  <rdf:RDF xmlns:dc="http://purl.org/dc/elements/1.1/" xmlns:cc="http://creativecommons.org/ns#" xmlns:rdf="http://www.w3.org/1999/02/22-rdf-syntax-ns#">
   <cc:Work>
    <dc:type rdf:resource="http://purl.org/dc/dcmitype/StillImage"/>
    <dc:date>2024-07-18T20:55:29.519027</dc:date>
    <dc:format>image/svg+xml</dc:format>
    <dc:creator>
     <cc:Agent>
      <dc:title>Matplotlib v3.8.4, https://matplotlib.org/</dc:title>
     </cc:Agent>
    </dc:creator>
   </cc:Work>
  </rdf:RDF>
 </metadata>
 <defs>
  <style type="text/css">*{stroke-linejoin: round; stroke-linecap: butt}</style>
 </defs>
 <g id="figure_1">
  <g id="patch_1">
   <path d="M 0 360 
L 360 360 
L 360 0 
L 0 0 
z
" style="fill: #ffffff"/>
  </g>
  <g id="axes_1">
   <g id="patch_2">
    <path d="M 45.9 320.4 
L 323.1 320.4 
L 323.1 43.2 
L 45.9 43.2 
z
" style="fill: #eaeaf2"/>
   </g>
   <g id="PathCollection_1">
    <defs>
     <path id="m3da4c5dc42" d="M -1.224745 1.224745 
L 1.224745 -1.224745 
M -1.224745 -1.224745 
L 1.224745 1.224745 
" style="stroke: #000000; stroke-opacity: 0.8; stroke-width: 1.5"/>
    </defs>
    <g clip-path="url(#p5781909317)">
     <use xlink:href="#m3da4c5dc42" x="166.596188" y="211.828041" style="fill-opacity: 0.8; stroke: #000000; stroke-opacity: 0.8; stroke-width: 1.5"/>
    </g>
   </g>
   <g id="PathCollection_2"/>
   <g id="patch_3">
    <path d="M 244.980025 133.92 
C 244.980025 132.583376 244.448979 131.301317 243.503843 130.356182 
C 242.558708 129.411046 241.276649 128.88 239.940025 128.88 
C 238.603402 128.88 237.321343 129.411046 236.376207 130.356182 
C 235.431071 131.301317 234.900025 132.583376 234.900025 133.92 
C 234.900025 135.256624 235.431071 136.538683 236.376207 137.483818 
C 237.321343 138.428954 238.603402 138.96 239.940025 138.96 
C 241.276649 138.96 242.558708 138.428954 243.503843 137.483818 
C 244.448979 136.538683 244.980025 135.256624 244.980025 133.92 
z
" clip-path="url(#p5781909317)" style="fill: #ffff00; opacity: 0.1"/>
   </g>
   <g id="PathCollection_3">
    <defs>
     <path id="ma182e07c34" d="M 0 1 
C 0.265203 1 0.51958 0.894634 0.707107 0.707107 
C 0.894634 0.51958 1 0.265203 1 0 
C 1 -0.265203 0.894634 -0.51958 0.707107 -0.707107 
C 0.51958 -0.894634 0.265203 -1 0 -1 
C -0.265203 -1 -0.51958 -0.894634 -0.707107 -0.707107 
C -0.894634 -0.51958 -1 -0.265203 -1 0 
C -1 0.265203 -0.894634 0.51958 -0.707107 0.707107 
C -0.51958 0.894634 -0.265203 1 0 1 
z
" style="stroke: #000000; stroke-opacity: 0.8"/>
    </defs>
    <g clip-path="url(#p5781909317)">
     <use xlink:href="#ma182e07c34" x="239.940025" y="133.92" style="fill-opacity: 0.8; stroke: #000000; stroke-opacity: 0.8"/>
    </g>
   </g>
   <g id="PathCollection_4"/>
   <g id="patch_4">
    <path d="M 241.383267 143.094225 
C 241.383267 140.420978 240.321175 137.85686 238.430904 135.966589 
C 236.540632 134.076318 233.976514 133.014225 231.303267 133.014225 
C 228.63002 133.014225 226.065902 134.076318 224.175631 135.966589 
C 222.28536 137.85686 221.223267 140.420978 221.223267 143.094225 
C 221.223267 145.767473 222.28536 148.33159 224.175631 150.221862 
C 226.065902 152.112133 228.63002 153.174225 231.303267 153.174225 
C 233.976514 153.174225 236.540632 152.112133 238.430904 150.221862 
C 240.321175 148.33159 241.383267 145.767473 241.383267 143.094225 
z
" clip-path="url(#p5781909317)" style="fill: #800080; opacity: 0.1"/>
   </g>
   <g id="PathCollection_5"/>
   <g id="patch_5">
    <path d="M 195.786266 137.857653 
C 194.650935 138.011451 193.620267 138.589456 192.921255 139.464369 
C 192.222243 140.339281 191.911958 141.439669 192.058736 142.523184 
C 192.205515 143.606699 192.797374 144.584878 193.703963 145.242287 
C 194.610552 145.899697 195.757851 146.182662 196.893183 146.028864 
C 198.028514 145.875066 199.059182 145.297061 199.758194 144.422148 
C 200.457206 143.547236 200.767491 142.446848 200.620712 141.363333 
C 200.473934 140.279817 199.882075 139.301639 198.975486 138.64423 
C 198.068897 137.98682 196.921597 137.703855 195.786266 137.857653 
z
" clip-path="url(#p5781909317)" style="fill: #008000; opacity: 0.1"/>
   </g>
   <g id="patch_6">
    <path d="M 196.339724 141.943258 
L 201.459907 139.590445 
L 201.377037 142.107821 
L 231.303309 143.092966 
L 231.303226 143.095485 
L 201.376954 142.11034 
L 201.294085 144.627716 
z
" clip-path="url(#p5781909317)" style="opacity: 0.3; stroke: #000000; stroke-linejoin: miter"/>
   </g>
   <g id="PathCollection_6">
    <g clip-path="url(#p5781909317)">
     <use xlink:href="#ma182e07c34" x="229.860025" y="138.96" style="fill-opacity: 0.8; stroke: #000000; stroke-opacity: 0.8"/>
    </g>
   </g>
   <g id="PathCollection_7"/>
   <g id="patch_7">
    <path d="M 186.783315 141.890925 
C 184.223611 142.237676 181.904954 143.578291 180.337999 145.617515 
C 178.771045 147.656738 178.083729 150.228077 178.427425 152.765223 
C 178.77112 155.302369 180.117766 157.598176 182.170779 159.147019 
C 184.223793 160.695862 186.815554 161.371285 189.375257 161.024534 
C 191.934961 160.677783 194.253619 159.337168 195.820573 157.297944 
C 197.387527 155.258721 198.074843 152.687382 197.731148 150.150236 
C 197.387452 147.61309 196.040806 145.317283 193.987793 143.76844 
C 191.93478 142.219597 189.343019 141.544174 186.783315 141.890925 
z
" clip-path="url(#p5781909317)" style="fill: #800080; opacity: 0.1"/>
   </g>
   <g id="PathCollection_8"/>
   <g id="patch_8">
    <path d="M 196.401305 146.357235 
C 195.267952 146.481484 194.227897 147.029668 193.510201 147.881054 
C 192.792505 148.73244 192.455764 149.817517 192.574141 150.897309 
C 192.692519 151.977101 193.25635 152.963449 194.141457 153.63912 
C 195.026564 154.314791 196.160682 154.62462 197.294035 154.500371 
C 198.427388 154.376122 199.467442 153.827938 200.185138 152.976552 
C 200.902835 152.125166 201.239576 151.040089 201.121198 149.960297 
C 201.002821 148.880505 200.43899 147.894157 199.553883 147.218486 
C 198.668776 146.542815 197.534658 146.232986 196.401305 146.357235 
z
" clip-path="url(#p5781909317)" style="fill: #008000; opacity: 0.1"/>
   </g>
   <g id="patch_9">
    <path d="M 196.84767 150.428803 
L 192.13571 153.519019 
L 191.842162 151.017443 
L 188.079433 151.458981 
L 188.079139 151.456478 
L 191.841869 151.01494 
L 191.548321 148.513365 
z
" clip-path="url(#p5781909317)" style="opacity: 0.3; stroke: #000000; stroke-linejoin: miter"/>
   </g>
   <g id="PathCollection_9">
    <g clip-path="url(#p5781909317)">
     <use xlink:href="#ma182e07c34" x="222.300025" y="138.96" style="fill-opacity: 0.8; stroke: #000000; stroke-opacity: 0.8"/>
    </g>
   </g>
   <g id="PathCollection_10"/>
   <g id="patch_10">
    <path d="M 188.144595 150.853684 
C 185.579342 151.134912 183.229531 152.414624 181.612682 154.410979 
C 179.995833 156.407334 179.243954 158.957338 179.522638 161.499382 
C 179.801322 164.041426 181.087815 166.367964 183.098782 167.966602 
C 185.10975 169.565241 187.681005 170.305458 190.246258 170.02423 
C 192.811512 169.743001 195.161322 168.463289 196.778171 166.466934 
C 198.39502 164.470579 199.146899 161.920575 198.868215 159.378531 
C 198.589532 156.836487 197.303038 154.509949 195.292071 152.911311 
C 193.281104 151.312673 190.709849 150.572455 188.144595 150.853684 
z
" clip-path="url(#p5781909317)" style="fill: #800080; opacity: 0.1"/>
   </g>
   <g id="PathCollection_11"/>
   <g id="patch_11">
    <path d="M 193.937046 155.502701 
C 192.803072 155.621815 191.760472 156.165243 191.038865 157.013304 
C 190.317258 157.861364 189.975561 158.944815 190.089028 160.025039 
C 190.202496 161.105264 190.761864 162.094067 191.643939 162.773675 
C 192.526013 163.453283 193.658776 163.76821 194.79275 163.649096 
C 195.926724 163.529983 196.969325 162.986554 197.690932 162.138494 
C 198.412539 161.290434 198.754236 160.206983 198.640768 159.126758 
C 198.527301 158.046533 197.967933 157.057731 197.085858 156.378123 
C 196.203784 155.698514 195.071021 155.383588 193.937046 155.502701 
z
" clip-path="url(#p5781909317)" style="fill: #008000; opacity: 0.1"/>
   </g>
   <g id="patch_12">
    <path d="M 194.364898 159.575899 
L 189.808681 162.891451 
L 189.393911 160.407096 
L 189.195634 160.440199 
L 189.195219 160.437714 
L 189.393496 160.404611 
L 188.978726 157.920256 
z
" clip-path="url(#p5781909317)" style="opacity: 0.3; stroke: #000000; stroke-linejoin: miter"/>
   </g>
   <g id="PathCollection_12">
    <g clip-path="url(#p5781909317)">
     <use xlink:href="#ma182e07c34" x="209.700025" y="149.04" style="fill-opacity: 0.8; stroke: #000000; stroke-opacity: 0.8"/>
    </g>
   </g>
   <g id="PathCollection_13"/>
   <g id="patch_13">
    <path d="M 186.226389 160.373894 
C 183.659855 160.643485 181.304232 161.912511 179.678318 163.901484 
C 178.052405 165.890458 177.288949 168.436988 177.556093 170.98023 
C 177.823237 173.523473 179.09917 175.855783 181.102883 177.463498 
C 183.106596 179.071213 185.674493 179.823068 188.241027 179.553478 
C 190.80756 179.283887 193.163183 178.014861 194.789097 176.025887 
C 196.415011 174.036914 197.178467 171.490384 196.911323 168.947142 
C 196.644179 166.403899 195.368245 164.071588 193.364533 162.463874 
C 191.36082 160.856159 188.792922 160.104304 186.226389 160.373894 
z
" clip-path="url(#p5781909317)" style="fill: #800080; opacity: 0.1"/>
   </g>
   <g id="PathCollection_14"/>
   <g id="patch_14">
    <path d="M 186.922682 165.299134 
C 185.788588 165.417501 184.745589 165.96025 184.023393 166.807847 
C 183.301197 167.655444 182.958768 168.738685 183.071523 169.819001 
C 183.184277 170.899316 183.743009 171.888502 184.624664 172.568702 
C 185.506319 173.248901 186.638914 173.56458 187.773008 173.446212 
C 188.907101 173.327845 189.950101 172.785096 190.672296 171.937499 
C 191.394492 171.089902 191.736921 170.006661 191.624167 168.926345 
C 191.511412 167.84603 190.95268 166.856844 190.071025 166.176644 
C 189.189371 165.496444 188.056776 165.180766 186.922682 165.299134 
z
" clip-path="url(#p5781909317)" style="fill: #008000; opacity: 0.1"/>
   </g>
   <g id="patch_15">
    <path d="M 187.347845 169.372673 
L 188.866456 174.799073 
L 186.39341 174.321477 
L 187.234945 169.963925 
L 187.232471 169.963447 
L 186.390936 174.320999 
L 183.917891 173.843402 
z
" clip-path="url(#p5781909317)" style="opacity: 0.3; stroke: #000000; stroke-linejoin: miter"/>
   </g>
   <g id="PathCollection_15">
    <g clip-path="url(#p5781909317)">
     <use xlink:href="#ma182e07c34" x="204.660025" y="159.12" style="fill-opacity: 0.8; stroke: #000000; stroke-opacity: 0.8"/>
    </g>
   </g>
   <g id="PathCollection_16"/>
   <g id="patch_16">
    <path d="M 178.97008 169.997033 
C 176.40335 170.264928 174.046871 171.532399 172.419629 173.520303 
C 170.792387 175.508206 170.02724 178.054237 170.292702 180.597662 
C 170.558164 183.141088 171.832562 185.474248 173.835223 187.083291 
C 175.837885 188.692335 178.405303 189.44589 180.972032 189.177996 
C 183.538762 188.910102 185.895241 187.64263 187.522483 185.654727 
C 189.149725 183.666824 189.914872 181.120792 189.64941 178.577367 
C 189.383948 176.033942 188.109551 173.700781 186.106889 172.091738 
C 184.104227 170.482694 181.536809 169.729139 178.97008 169.997033 
z
" clip-path="url(#p5781909317)" style="fill: #800080; opacity: 0.1"/>
   </g>
   <g id="PathCollection_17"/>
   <g id="patch_17">
    <path d="M 184.276537 175.208802 
C 183.142426 175.327069 182.099372 175.869726 181.377095 176.71726 
C 180.654818 177.564794 180.31229 178.648008 180.424947 179.728337 
C 180.537605 180.808665 181.09625 181.797904 181.977849 182.478185 
C 182.859448 183.158466 183.992021 183.474247 185.126132 183.355981 
C 186.260243 183.237714 187.303297 182.695057 188.025574 181.847523 
C 188.747851 180.999989 189.090379 179.916775 188.977722 178.836446 
C 188.865064 177.756118 188.306419 176.766879 187.42482 176.086598 
C 186.543221 175.406317 185.410648 175.090536 184.276537 175.208802 
z
" clip-path="url(#p5781909317)" style="fill: #008000; opacity: 0.1"/>
   </g>
   <g id="patch_18">
    <path d="M 184.701334 179.282391 
L 179.834001 182.121592 
L 179.671868 179.608076 
L 179.971137 179.588772 
L 179.970975 179.586257 
L 179.671706 179.605561 
L 179.509573 177.092045 
z
" clip-path="url(#p5781909317)" style="opacity: 0.3; stroke: #000000; stroke-linejoin: miter"/>
   </g>
   <g id="PathCollection_18">
    <g clip-path="url(#p5781909317)">
     <use xlink:href="#ma182e07c34" x="202.140025" y="171.72" style="fill-opacity: 0.8; stroke: #000000; stroke-opacity: 0.8"/>
    </g>
   </g>
   <g id="PathCollection_19"/>
   <g id="patch_19">
    <path d="M 175.344398 179.121742 
C 172.777642 179.389405 170.421046 180.656666 168.793623 182.644424 
C 167.1662 184.632182 166.400823 187.178145 166.666056 189.721596 
C 166.931289 192.265047 168.205478 194.598322 170.207997 196.207547 
C 172.210516 197.816771 174.777869 198.570558 177.344626 198.302894 
C 179.911382 198.035231 182.267978 196.76797 183.895401 194.780213 
C 185.522824 192.792455 186.288201 190.246491 186.022968 187.70304 
C 185.757735 185.15959 184.483546 182.826314 182.481027 181.217089 
C 180.478508 179.607865 177.911155 178.854078 175.344398 179.121742 
z
" clip-path="url(#p5781909317)" style="fill: #800080; opacity: 0.1"/>
   </g>
   <g id="PathCollection_20"/>
   <g id="patch_20">
    <path d="M 183.831064 184.689347 
C 182.69695 184.8076 181.653889 185.350245 180.931601 186.197771 
C 180.209314 187.045297 179.866772 188.128508 179.979417 189.208838 
C 180.092062 190.289168 180.650696 191.278414 181.532287 191.958705 
C 182.413879 192.638997 183.546449 192.954791 184.680562 192.836538 
C 185.814676 192.718286 186.857737 192.175641 187.580025 191.328114 
C 188.302312 190.480588 188.644854 189.397378 188.532209 188.317048 
C 188.419564 187.236717 187.86093 186.247472 186.979339 185.56718 
C 186.097747 184.886889 184.965177 184.571094 183.831064 184.689347 
z
" clip-path="url(#p5781909317)" style="fill: #008000; opacity: 0.1"/>
   </g>
   <g id="patch_21">
    <path d="M 184.255813 188.762943 
L 179.199791 191.250641 
L 179.215908 188.731952 
L 176.344504 188.713578 
L 176.34452 188.711058 
L 179.215924 188.729432 
L 179.232041 186.210744 
z
" clip-path="url(#p5781909317)" style="opacity: 0.3; stroke: #000000; stroke-linejoin: miter"/>
   </g>
   <g id="PathCollection_21">
    <g clip-path="url(#p5781909317)">
     <use xlink:href="#ma182e07c34" x="202.14" y="181.8" style="fill-opacity: 0.8; stroke: #000000; stroke-opacity: 0.8"/>
    </g>
   </g>
   <g id="PathCollection_22"/>
   <g id="patch_22">
    <path d="M 173.630807 187.303729 
C 171.064047 187.571362 168.707435 188.838595 167.079989 190.826334 
C 165.452542 192.814072 164.687134 195.360027 164.952337 197.903481 
C 165.21754 200.446935 166.491702 202.780226 168.494202 204.389474 
C 170.496703 205.998723 173.064047 206.75254 175.630807 206.484907 
C 178.197567 206.217273 180.554179 204.950041 182.181625 202.962302 
C 183.809072 200.974563 184.57448 198.428608 184.309277 195.885155 
C 184.044074 193.341701 182.769912 191.00841 180.767412 189.399161 
C 178.764911 187.789913 176.197567 187.036096 173.630807 187.303729 
z
" clip-path="url(#p5781909317)" style="fill: #800080; opacity: 0.1"/>
   </g>
   <g id="PathCollection_23"/>
   <g id="patch_23">
    <path d="M 184.628029 193.109095 
C 183.493915 193.227346 182.450853 193.76999 181.728564 194.617515 
C 181.006275 195.46504 180.663732 196.54825 180.776375 197.62858 
C 180.889018 198.708911 181.447651 199.698157 182.329241 200.37845 
C 183.210832 201.058743 184.343401 201.374539 185.477515 201.256288 
C 186.611629 201.138037 187.654691 200.595394 188.37698 199.747869 
C 189.099269 198.900344 189.441813 197.817134 189.329169 196.736803 
C 189.216526 195.656473 188.657893 194.667226 187.776303 193.986933 
C 186.894713 193.30664 185.762143 192.990844 184.628029 193.109095 
z
" clip-path="url(#p5781909317)" style="fill: #008000; opacity: 0.1"/>
   </g>
   <g id="patch_24">
    <path d="M 185.052772 197.182692 
L 179.944999 199.562325 
L 180.014665 197.044549 
L 174.630772 196.895577 
L 174.630842 196.893058 
L 180.014735 197.04203 
L 180.084402 194.524253 
z
" clip-path="url(#p5781909317)" style="opacity: 0.3; stroke: #000000; stroke-linejoin: miter"/>
   </g>
   <g id="PathCollection_24">
    <g clip-path="url(#p5781909317)">
     <use xlink:href="#ma182e07c34" x="202.14" y="189.36" style="fill-opacity: 0.8; stroke: #000000; stroke-opacity: 0.8"/>
    </g>
   </g>
   <g id="PathCollection_25"/>
   <g id="patch_25">
    <path d="M 173.402241 194.32455 
C 170.83548 194.59218 168.478867 195.859409 166.851417 197.847145 
C 165.223967 199.834881 164.458555 202.380835 164.723755 204.924289 
C 164.988954 207.467744 166.263112 209.801037 168.26561 211.410288 
C 170.268108 213.019539 172.835451 213.77336 175.402211 213.505731 
C 177.968972 213.238102 180.325586 211.970873 181.953035 209.983137 
C 183.580485 207.9954 184.345897 205.449447 184.080697 202.905992 
C 183.815498 200.362538 182.54134 198.029245 180.538842 196.419993 
C 178.536344 194.810742 175.969001 194.056921 173.402241 194.32455 
z
" clip-path="url(#p5781909317)" style="fill: #800080; opacity: 0.1"/>
   </g>
   <g id="PathCollection_26"/>
   <g id="patch_26">
    <path d="M 185.51028 200.327799 
C 184.376167 200.44605 183.333104 200.988693 182.610815 201.836218 
C 181.888526 202.683743 181.545982 203.766953 181.658625 204.847283 
C 181.771268 205.927614 182.329901 206.916861 183.211491 207.597154 
C 184.093081 208.277447 185.225651 208.593243 186.359765 208.474992 
C 187.493879 208.356742 188.536941 207.814098 189.25923 206.966573 
C 189.981519 206.119048 190.324063 205.035838 190.21142 203.955508 
C 190.098777 202.875178 189.540144 201.885931 188.658554 201.205638 
C 187.776964 200.525345 186.644394 200.209548 185.51028 200.327799 
z
" clip-path="url(#p5781909317)" style="fill: #008000; opacity: 0.1"/>
   </g>
   <g id="patch_27">
    <path d="M 185.935023 204.401396 
L 180.793341 206.706847 
L 180.899443 204.190343 
L 174.402173 203.9164 
L 174.402279 203.913882 
L 180.89955 204.187825 
L 181.005652 201.671321 
z
" clip-path="url(#p5781909317)" style="opacity: 0.3; stroke: #000000; stroke-linejoin: miter"/>
   </g>
   <g id="PathCollection_27">
    <g clip-path="url(#p5781909317)">
     <use xlink:href="#ma182e07c34" x="202.14" y="204.48" style="fill-opacity: 0.8; stroke: #000000; stroke-opacity: 0.8"/>
    </g>
   </g>
   <g id="PathCollection_28"/>
   <g id="patch_28">
    <path d="M 172.595955 197.361688 
C 170.029194 197.629317 167.672581 198.896545 166.04513 200.884281 
C 164.41768 202.872017 163.652268 205.417971 163.917467 207.961425 
C 164.182666 210.504879 165.456823 212.838173 167.459321 214.447424 
C 169.461818 216.056676 172.029161 216.810498 174.595922 216.542869 
C 177.162683 216.27524 179.519297 215.008012 181.146747 213.020276 
C 182.774197 211.03254 183.539609 208.486586 183.27441 205.943132 
C 183.009212 203.399677 181.735054 201.066384 179.732556 199.457132 
C 177.730059 197.847881 175.162716 197.094059 172.595955 197.361688 
z
" clip-path="url(#p5781909317)" style="fill: #800080; opacity: 0.1"/>
   </g>
   <g id="PathCollection_29"/>
   <g id="patch_29">
    <path d="M 186.635521 203.607515 
C 185.501407 203.725766 184.458344 204.268409 183.736055 205.115934 
C 183.013766 205.963459 182.671223 207.046669 182.783866 208.126999 
C 182.896509 209.20733 183.455141 210.196577 184.336731 210.87687 
C 185.218322 211.557163 186.350891 211.872959 187.485005 211.754708 
C 188.619119 211.636458 189.662182 211.093814 190.384471 210.246289 
C 191.10676 209.398764 191.449303 208.315555 191.33666 207.235224 
C 191.224018 206.154894 190.665385 205.165647 189.783795 204.485354 
C 188.902204 203.805061 187.769635 203.489264 186.635521 203.607515 
z
" clip-path="url(#p5781909317)" style="fill: #008000; opacity: 0.1"/>
   </g>
   <g id="patch_30">
    <path d="M 187.060263 207.681112 
L 181.891421 209.925008 
L 182.027563 207.40995 
L 173.59587 206.953537 
L 173.596007 206.95102 
L 182.027699 207.407434 
L 182.163841 204.892376 
z
" clip-path="url(#p5781909317)" style="opacity: 0.3; stroke: #000000; stroke-linejoin: miter"/>
   </g>
   <g id="PathCollection_30">
    <g clip-path="url(#p5781909317)">
     <use xlink:href="#ma182e07c34" x="194.58" y="209.52" style="fill-opacity: 0.8; stroke: #000000; stroke-opacity: 0.8"/>
    </g>
   </g>
   <g id="PathCollection_31"/>
   <g id="patch_31">
    <path d="M 173.502919 199.126223 
C 170.936158 199.393852 168.579544 200.661081 166.952094 202.648817 
C 165.324644 204.636553 164.559231 207.182506 164.82443 209.72596 
C 165.089629 212.269415 166.363786 214.602708 168.366284 216.21196 
C 170.368781 217.821212 172.936124 218.575034 175.502885 218.307405 
C 178.069646 218.039776 180.42626 216.772548 182.05371 214.784812 
C 183.68116 212.797076 184.446572 210.251122 184.181374 207.707668 
C 183.916175 205.164213 182.642018 202.83092 180.63952 201.221668 
C 178.637022 199.612416 176.069679 198.858595 173.502919 199.126223 
z
" clip-path="url(#p5781909317)" style="fill: #800080; opacity: 0.1"/>
   </g>
   <g id="PathCollection_32"/>
   <g id="patch_32">
    <path d="M 182.172041 205.476223 
C 181.037927 205.594473 179.994864 206.137117 179.272575 206.984642 
C 178.550286 207.832167 178.207743 208.915376 178.320386 209.995707 
C 178.433029 211.076037 178.991661 212.065284 179.873252 212.745577 
C 180.754842 213.42587 181.887411 213.741667 183.021525 213.623416 
C 184.155639 213.505165 185.198702 212.962522 185.920991 212.114997 
C 186.64328 211.267472 186.985824 210.184262 186.873181 209.103932 
C 186.760538 208.023601 186.201905 207.034354 185.320315 206.354061 
C 184.438725 205.673768 183.306155 205.357972 182.172041 205.476223 
z
" clip-path="url(#p5781909317)" style="fill: #008000; opacity: 0.1"/>
   </g>
   <g id="patch_33">
    <path d="M 182.596783 209.549819 
L 177.325275 211.540598 
L 177.583136 209.035092 
L 174.502773 208.718068 
L 174.503031 208.715561 
L 177.583394 209.032585 
L 177.841255 206.52708 
z
" clip-path="url(#p5781909317)" style="opacity: 0.3; stroke: #000000; stroke-linejoin: miter"/>
   </g>
   <g id="matplotlib.axis_1">
    <g id="xtick_1">
     <g id="line2d_1">
      <path d="M 83.7 320.4 
L 83.7 43.2 
" clip-path="url(#p5781909317)" style="fill: none; stroke: #b0b0b0; stroke-opacity: 0.3; stroke-width: 0.8; stroke-linecap: square"/>
     </g>
     <g id="line2d_2">
      <defs>
       <path id="mfed5ba8646" d="M 0 0 
L 0 3.5 
" style="stroke: #000000; stroke-width: 0.8"/>
      </defs>
      <g>
       <use xlink:href="#mfed5ba8646" x="83.7" y="320.4" style="stroke: #000000; stroke-width: 0.8"/>
      </g>
     </g>
     <g id="text_1">
      <!-- −40 -->
      <g transform="translate(73.147656 334.998438) scale(0.1 -0.1)">
       <defs>
        <path id="DejaVuSans-2212" d="M 678 2272 
L 4684 2272 
L 4684 1741 
L 678 1741 
L 678 2272 
z
" transform="scale(0.015625)"/>
        <path id="DejaVuSans-34" d="M 2419 4116 
L 825 1625 
L 2419 1625 
L 2419 4116 
z
M 2253 4666 
L 3047 4666 
L 3047 1625 
L 3713 1625 
L 3713 1100 
L 3047 1100 
L 3047 0 
L 2419 0 
L 2419 1100 
L 313 1100 
L 313 1709 
L 2253 4666 
z
" transform="scale(0.015625)"/>
        <path id="DejaVuSans-30" d="M 2034 4250 
Q 1547 4250 1301 3770 
Q 1056 3291 1056 2328 
Q 1056 1369 1301 889 
Q 1547 409 2034 409 
Q 2525 409 2770 889 
Q 3016 1369 3016 2328 
Q 3016 3291 2770 3770 
Q 2525 4250 2034 4250 
z
M 2034 4750 
Q 2819 4750 3233 4129 
Q 3647 3509 3647 2328 
Q 3647 1150 3233 529 
Q 2819 -91 2034 -91 
Q 1250 -91 836 529 
Q 422 1150 422 2328 
Q 422 3509 836 4129 
Q 1250 4750 2034 4750 
z
" transform="scale(0.015625)"/>
       </defs>
       <use xlink:href="#DejaVuSans-2212"/>
       <use xlink:href="#DejaVuSans-34" x="83.789062"/>
       <use xlink:href="#DejaVuSans-30" x="147.412109"/>
      </g>
     </g>
    </g>
    <g id="xtick_2">
     <g id="line2d_3">
      <path d="M 134.1 320.4 
L 134.1 43.2 
" clip-path="url(#p5781909317)" style="fill: none; stroke: #b0b0b0; stroke-opacity: 0.3; stroke-width: 0.8; stroke-linecap: square"/>
     </g>
     <g id="line2d_4">
      <g>
       <use xlink:href="#mfed5ba8646" x="134.1" y="320.4" style="stroke: #000000; stroke-width: 0.8"/>
      </g>
     </g>
     <g id="text_2">
      <!-- −20 -->
      <g transform="translate(123.547656 334.998438) scale(0.1 -0.1)">
       <defs>
        <path id="DejaVuSans-32" d="M 1228 531 
L 3431 531 
L 3431 0 
L 469 0 
L 469 531 
Q 828 903 1448 1529 
Q 2069 2156 2228 2338 
Q 2531 2678 2651 2914 
Q 2772 3150 2772 3378 
Q 2772 3750 2511 3984 
Q 2250 4219 1831 4219 
Q 1534 4219 1204 4116 
Q 875 4013 500 3803 
L 500 4441 
Q 881 4594 1212 4672 
Q 1544 4750 1819 4750 
Q 2544 4750 2975 4387 
Q 3406 4025 3406 3419 
Q 3406 3131 3298 2873 
Q 3191 2616 2906 2266 
Q 2828 2175 2409 1742 
Q 1991 1309 1228 531 
z
" transform="scale(0.015625)"/>
       </defs>
       <use xlink:href="#DejaVuSans-2212"/>
       <use xlink:href="#DejaVuSans-32" x="83.789062"/>
       <use xlink:href="#DejaVuSans-30" x="147.412109"/>
      </g>
     </g>
    </g>
    <g id="xtick_3">
     <g id="line2d_5">
      <path d="M 184.5 320.4 
L 184.5 43.2 
" clip-path="url(#p5781909317)" style="fill: none; stroke: #b0b0b0; stroke-opacity: 0.3; stroke-width: 0.8; stroke-linecap: square"/>
     </g>
     <g id="line2d_6">
      <g>
       <use xlink:href="#mfed5ba8646" x="184.5" y="320.4" style="stroke: #000000; stroke-width: 0.8"/>
      </g>
     </g>
     <g id="text_3">
      <!-- 0 -->
      <g transform="translate(181.31875 334.998438) scale(0.1 -0.1)">
       <use xlink:href="#DejaVuSans-30"/>
      </g>
     </g>
    </g>
    <g id="xtick_4">
     <g id="line2d_7">
      <path d="M 234.9 320.4 
L 234.9 43.2 
" clip-path="url(#p5781909317)" style="fill: none; stroke: #b0b0b0; stroke-opacity: 0.3; stroke-width: 0.8; stroke-linecap: square"/>
     </g>
     <g id="line2d_8">
      <g>
       <use xlink:href="#mfed5ba8646" x="234.9" y="320.4" style="stroke: #000000; stroke-width: 0.8"/>
      </g>
     </g>
     <g id="text_4">
      <!-- 20 -->
      <g transform="translate(228.5375 334.998438) scale(0.1 -0.1)">
       <use xlink:href="#DejaVuSans-32"/>
       <use xlink:href="#DejaVuSans-30" x="63.623047"/>
      </g>
     </g>
    </g>
    <g id="xtick_5">
     <g id="line2d_9">
      <path d="M 285.3 320.4 
L 285.3 43.2 
" clip-path="url(#p5781909317)" style="fill: none; stroke: #b0b0b0; stroke-opacity: 0.3; stroke-width: 0.8; stroke-linecap: square"/>
     </g>
     <g id="line2d_10">
      <g>
       <use xlink:href="#mfed5ba8646" x="285.3" y="320.4" style="stroke: #000000; stroke-width: 0.8"/>
      </g>
     </g>
     <g id="text_5">
      <!-- 40 -->
      <g transform="translate(278.9375 334.998438) scale(0.1 -0.1)">
       <use xlink:href="#DejaVuSans-34"/>
       <use xlink:href="#DejaVuSans-30" x="63.623047"/>
      </g>
     </g>
    </g>
    <g id="text_6">
     <!-- X Position -->
     <g transform="translate(160.021875 348.676562) scale(0.1 -0.1)">
      <defs>
       <path id="DejaVuSans-58" d="M 403 4666 
L 1081 4666 
L 2241 2931 
L 3406 4666 
L 4084 4666 
L 2584 2425 
L 4184 0 
L 3506 0 
L 2194 1984 
L 872 0 
L 191 0 
L 1856 2491 
L 403 4666 
z
" transform="scale(0.015625)"/>
       <path id="DejaVuSans-20" transform="scale(0.015625)"/>
       <path id="DejaVuSans-50" d="M 1259 4147 
L 1259 2394 
L 2053 2394 
Q 2494 2394 2734 2622 
Q 2975 2850 2975 3272 
Q 2975 3691 2734 3919 
Q 2494 4147 2053 4147 
L 1259 4147 
z
M 628 4666 
L 2053 4666 
Q 2838 4666 3239 4311 
Q 3641 3956 3641 3272 
Q 3641 2581 3239 2228 
Q 2838 1875 2053 1875 
L 1259 1875 
L 1259 0 
L 628 0 
L 628 4666 
z
" transform="scale(0.015625)"/>
       <path id="DejaVuSans-6f" d="M 1959 3097 
Q 1497 3097 1228 2736 
Q 959 2375 959 1747 
Q 959 1119 1226 758 
Q 1494 397 1959 397 
Q 2419 397 2687 759 
Q 2956 1122 2956 1747 
Q 2956 2369 2687 2733 
Q 2419 3097 1959 3097 
z
M 1959 3584 
Q 2709 3584 3137 3096 
Q 3566 2609 3566 1747 
Q 3566 888 3137 398 
Q 2709 -91 1959 -91 
Q 1206 -91 779 398 
Q 353 888 353 1747 
Q 353 2609 779 3096 
Q 1206 3584 1959 3584 
z
" transform="scale(0.015625)"/>
       <path id="DejaVuSans-73" d="M 2834 3397 
L 2834 2853 
Q 2591 2978 2328 3040 
Q 2066 3103 1784 3103 
Q 1356 3103 1142 2972 
Q 928 2841 928 2578 
Q 928 2378 1081 2264 
Q 1234 2150 1697 2047 
L 1894 2003 
Q 2506 1872 2764 1633 
Q 3022 1394 3022 966 
Q 3022 478 2636 193 
Q 2250 -91 1575 -91 
Q 1294 -91 989 -36 
Q 684 19 347 128 
L 347 722 
Q 666 556 975 473 
Q 1284 391 1588 391 
Q 1994 391 2212 530 
Q 2431 669 2431 922 
Q 2431 1156 2273 1281 
Q 2116 1406 1581 1522 
L 1381 1569 
Q 847 1681 609 1914 
Q 372 2147 372 2553 
Q 372 3047 722 3315 
Q 1072 3584 1716 3584 
Q 2034 3584 2315 3537 
Q 2597 3491 2834 3397 
z
" transform="scale(0.015625)"/>
       <path id="DejaVuSans-69" d="M 603 3500 
L 1178 3500 
L 1178 0 
L 603 0 
L 603 3500 
z
M 603 4863 
L 1178 4863 
L 1178 4134 
L 603 4134 
L 603 4863 
z
" transform="scale(0.015625)"/>
       <path id="DejaVuSans-74" d="M 1172 4494 
L 1172 3500 
L 2356 3500 
L 2356 3053 
L 1172 3053 
L 1172 1153 
Q 1172 725 1289 603 
Q 1406 481 1766 481 
L 2356 481 
L 2356 0 
L 1766 0 
Q 1100 0 847 248 
Q 594 497 594 1153 
L 594 3053 
L 172 3053 
L 172 3500 
L 594 3500 
L 594 4494 
L 1172 4494 
z
" transform="scale(0.015625)"/>
       <path id="DejaVuSans-6e" d="M 3513 2113 
L 3513 0 
L 2938 0 
L 2938 2094 
Q 2938 2591 2744 2837 
Q 2550 3084 2163 3084 
Q 1697 3084 1428 2787 
Q 1159 2491 1159 1978 
L 1159 0 
L 581 0 
L 581 3500 
L 1159 3500 
L 1159 2956 
Q 1366 3272 1645 3428 
Q 1925 3584 2291 3584 
Q 2894 3584 3203 3211 
Q 3513 2838 3513 2113 
z
" transform="scale(0.015625)"/>
      </defs>
      <use xlink:href="#DejaVuSans-58"/>
      <use xlink:href="#DejaVuSans-20" x="68.505859"/>
      <use xlink:href="#DejaVuSans-50" x="100.292969"/>
      <use xlink:href="#DejaVuSans-6f" x="156.970703"/>
      <use xlink:href="#DejaVuSans-73" x="218.152344"/>
      <use xlink:href="#DejaVuSans-69" x="270.251953"/>
      <use xlink:href="#DejaVuSans-74" x="298.035156"/>
      <use xlink:href="#DejaVuSans-69" x="337.244141"/>
      <use xlink:href="#DejaVuSans-6f" x="365.027344"/>
      <use xlink:href="#DejaVuSans-6e" x="426.208984"/>
     </g>
    </g>
   </g>
   <g id="matplotlib.axis_2">
    <g id="ytick_1">
     <g id="line2d_11">
      <path d="M 45.9 282.6 
L 323.1 282.6 
" clip-path="url(#p5781909317)" style="fill: none; stroke: #b0b0b0; stroke-opacity: 0.3; stroke-width: 0.8; stroke-linecap: square"/>
     </g>
     <g id="line2d_12">
      <defs>
       <path id="m8bdfb9959f" d="M 0 0 
L -3.5 0 
" style="stroke: #000000; stroke-width: 0.8"/>
      </defs>
      <g>
       <use xlink:href="#m8bdfb9959f" x="45.9" y="282.6" style="stroke: #000000; stroke-width: 0.8"/>
      </g>
     </g>
     <g id="text_7">
      <!-- −40 -->
      <g transform="translate(17.795312 286.399219) scale(0.1 -0.1)">
       <use xlink:href="#DejaVuSans-2212"/>
       <use xlink:href="#DejaVuSans-34" x="83.789062"/>
       <use xlink:href="#DejaVuSans-30" x="147.412109"/>
      </g>
     </g>
    </g>
    <g id="ytick_2">
     <g id="line2d_13">
      <path d="M 45.9 232.2 
L 323.1 232.2 
" clip-path="url(#p5781909317)" style="fill: none; stroke: #b0b0b0; stroke-opacity: 0.3; stroke-width: 0.8; stroke-linecap: square"/>
     </g>
     <g id="line2d_14">
      <g>
       <use xlink:href="#m8bdfb9959f" x="45.9" y="232.2" style="stroke: #000000; stroke-width: 0.8"/>
      </g>
     </g>
     <g id="text_8">
      <!-- −20 -->
      <g transform="translate(17.795312 235.999219) scale(0.1 -0.1)">
       <use xlink:href="#DejaVuSans-2212"/>
       <use xlink:href="#DejaVuSans-32" x="83.789062"/>
       <use xlink:href="#DejaVuSans-30" x="147.412109"/>
      </g>
     </g>
    </g>
    <g id="ytick_3">
     <g id="line2d_15">
      <path d="M 45.9 181.8 
L 323.1 181.8 
" clip-path="url(#p5781909317)" style="fill: none; stroke: #b0b0b0; stroke-opacity: 0.3; stroke-width: 0.8; stroke-linecap: square"/>
     </g>
     <g id="line2d_16">
      <g>
       <use xlink:href="#m8bdfb9959f" x="45.9" y="181.8" style="stroke: #000000; stroke-width: 0.8"/>
      </g>
     </g>
     <g id="text_9">
      <!-- 0 -->
      <g transform="translate(32.5375 185.599219) scale(0.1 -0.1)">
       <use xlink:href="#DejaVuSans-30"/>
      </g>
     </g>
    </g>
    <g id="ytick_4">
     <g id="line2d_17">
      <path d="M 45.9 131.4 
L 323.1 131.4 
" clip-path="url(#p5781909317)" style="fill: none; stroke: #b0b0b0; stroke-opacity: 0.3; stroke-width: 0.8; stroke-linecap: square"/>
     </g>
     <g id="line2d_18">
      <g>
       <use xlink:href="#m8bdfb9959f" x="45.9" y="131.4" style="stroke: #000000; stroke-width: 0.8"/>
      </g>
     </g>
     <g id="text_10">
      <!-- 20 -->
      <g transform="translate(26.175 135.199219) scale(0.1 -0.1)">
       <use xlink:href="#DejaVuSans-32"/>
       <use xlink:href="#DejaVuSans-30" x="63.623047"/>
      </g>
     </g>
    </g>
    <g id="ytick_5">
     <g id="line2d_19">
      <path d="M 45.9 81 
L 323.1 81 
" clip-path="url(#p5781909317)" style="fill: none; stroke: #b0b0b0; stroke-opacity: 0.3; stroke-width: 0.8; stroke-linecap: square"/>
     </g>
     <g id="line2d_20">
      <g>
       <use xlink:href="#m8bdfb9959f" x="45.9" y="81" style="stroke: #000000; stroke-width: 0.8"/>
      </g>
     </g>
     <g id="text_11">
      <!-- 40 -->
      <g transform="translate(26.175 84.799219) scale(0.1 -0.1)">
       <use xlink:href="#DejaVuSans-34"/>
       <use xlink:href="#DejaVuSans-30" x="63.623047"/>
      </g>
     </g>
    </g>
    <g id="text_12">
     <!-- Y Position -->
     <g transform="translate(11.715625 205.907031) rotate(-90) scale(0.1 -0.1)">
      <defs>
       <path id="DejaVuSans-59" d="M -13 4666 
L 666 4666 
L 1959 2747 
L 3244 4666 
L 3922 4666 
L 2272 2222 
L 2272 0 
L 1638 0 
L 1638 2222 
L -13 4666 
z
" transform="scale(0.015625)"/>
      </defs>
      <use xlink:href="#DejaVuSans-59"/>
      <use xlink:href="#DejaVuSans-20" x="61.083984"/>
      <use xlink:href="#DejaVuSans-50" x="92.871094"/>
      <use xlink:href="#DejaVuSans-6f" x="149.548828"/>
      <use xlink:href="#DejaVuSans-73" x="210.730469"/>
      <use xlink:href="#DejaVuSans-69" x="262.830078"/>
      <use xlink:href="#DejaVuSans-74" x="290.613281"/>
      <use xlink:href="#DejaVuSans-69" x="329.822266"/>
      <use xlink:href="#DejaVuSans-6f" x="357.605469"/>
      <use xlink:href="#DejaVuSans-6e" x="418.787109"/>
     </g>
    </g>
   </g>
   <g id="LineCollection_1">
    <path d="M 58.5 320.4 
L 58.5 43.2 
" clip-path="url(#p5781909317)" style="fill: none; stroke-dasharray: 5.55,2.4; stroke-dashoffset: 0; stroke: #000000; stroke-opacity: 0.3; stroke-width: 1.5"/>
    <path d="M 310.5 320.4 
L 310.5 43.2 
" clip-path="url(#p5781909317)" style="fill: none; stroke-dasharray: 5.55,2.4; stroke-dashoffset: 0; stroke: #000000; stroke-opacity: 0.3; stroke-width: 1.5"/>
   </g>
   <g id="LineCollection_2">
    <path d="M 45.9 307.8 
L 323.1 307.8 
" clip-path="url(#p5781909317)" style="fill: none; stroke-dasharray: 5.55,2.4; stroke-dashoffset: 0; stroke: #000000; stroke-opacity: 0.3; stroke-width: 1.5"/>
    <path d="M 45.9 55.8 
L 323.1 55.8 
" clip-path="url(#p5781909317)" style="fill: none; stroke-dasharray: 5.55,2.4; stroke-dashoffset: 0; stroke: #000000; stroke-opacity: 0.3; stroke-width: 1.5"/>
   </g>
   <g id="line2d_21">
    <path d="M 237.420025 151.56 
L 239.940025 133.92 
" clip-path="url(#p5781909317)" style="fill: none; stroke: #000000; stroke-opacity: 0.3; stroke-width: 1.5; stroke-linecap: square"/>
   </g>
   <g id="line2d_22">
    <path d="M 239.940025 133.92 
L 229.860025 138.96 
" clip-path="url(#p5781909317)" style="fill: none; stroke: #000000; stroke-opacity: 0.3; stroke-width: 1.5; stroke-linecap: square"/>
   </g>
   <g id="line2d_23">
    <path d="M 229.860025 138.96 
L 222.300025 138.96 
" clip-path="url(#p5781909317)" style="fill: none; stroke: #000000; stroke-opacity: 0.3; stroke-width: 1.5; stroke-linecap: square"/>
   </g>
   <g id="line2d_24">
    <path d="M 222.300025 138.96 
L 209.700025 149.04 
" clip-path="url(#p5781909317)" style="fill: none; stroke: #000000; stroke-opacity: 0.3; stroke-width: 1.5; stroke-linecap: square"/>
   </g>
   <g id="line2d_25">
    <path d="M 209.700025 149.04 
L 204.660025 159.12 
" clip-path="url(#p5781909317)" style="fill: none; stroke: #000000; stroke-opacity: 0.3; stroke-width: 1.5; stroke-linecap: square"/>
   </g>
   <g id="line2d_26">
    <path d="M 204.660025 159.12 
L 202.140025 171.72 
" clip-path="url(#p5781909317)" style="fill: none; stroke: #000000; stroke-opacity: 0.3; stroke-width: 1.5; stroke-linecap: square"/>
   </g>
   <g id="line2d_27">
    <path d="M 202.140025 171.72 
L 202.14 181.8 
" clip-path="url(#p5781909317)" style="fill: none; stroke: #000000; stroke-opacity: 0.3; stroke-width: 1.5; stroke-linecap: square"/>
   </g>
   <g id="line2d_28">
    <path d="M 202.14 181.8 
L 202.14 189.36 
" clip-path="url(#p5781909317)" style="fill: none; stroke: #000000; stroke-opacity: 0.3; stroke-width: 1.5; stroke-linecap: square"/>
   </g>
   <g id="line2d_29">
    <path d="M 202.14 189.36 
L 202.14 204.48 
" clip-path="url(#p5781909317)" style="fill: none; stroke: #000000; stroke-opacity: 0.3; stroke-width: 1.5; stroke-linecap: square"/>
   </g>
   <g id="line2d_30">
    <path d="M 202.14 204.48 
L 194.58 209.52 
" clip-path="url(#p5781909317)" style="fill: none; stroke: #000000; stroke-opacity: 0.3; stroke-width: 1.5; stroke-linecap: square"/>
   </g>
   <g id="text_13">
    <!-- 0 -->
    <g style="opacity: 0.5" transform="translate(239.940025 133.92) scale(0.08 -0.08)">
     <use xlink:href="#DejaVuSans-30"/>
    </g>
   </g>
   <g id="text_14">
    <!-- 0 -->
    <g style="opacity: 0.5" transform="translate(231.303267 143.094225) scale(0.08 -0.08)">
     <use xlink:href="#DejaVuSans-30"/>
    </g>
   </g>
   <g id="text_15">
    <!-- 1 -->
    <g style="opacity: 0.5" transform="translate(188.079286 151.457729) scale(0.08 -0.08)">
     <defs>
      <path id="DejaVuSans-31" d="M 794 531 
L 1825 531 
L 1825 4091 
L 703 3866 
L 703 4441 
L 1819 4666 
L 2450 4666 
L 2450 531 
L 3481 531 
L 3481 0 
L 794 0 
L 794 531 
z
" transform="scale(0.015625)"/>
     </defs>
     <use xlink:href="#DejaVuSans-31"/>
    </g>
   </g>
   <g id="text_16">
    <!-- 2 -->
    <g style="opacity: 0.5" transform="translate(189.195427 160.438957) scale(0.08 -0.08)">
     <use xlink:href="#DejaVuSans-32"/>
    </g>
   </g>
   <g id="text_17">
    <!-- 3 -->
    <g style="opacity: 0.5" transform="translate(187.233708 169.963686) scale(0.08 -0.08)">
     <defs>
      <path id="DejaVuSans-33" d="M 2597 2516 
Q 3050 2419 3304 2112 
Q 3559 1806 3559 1356 
Q 3559 666 3084 287 
Q 2609 -91 1734 -91 
Q 1441 -91 1130 -33 
Q 819 25 488 141 
L 488 750 
Q 750 597 1062 519 
Q 1375 441 1716 441 
Q 2309 441 2620 675 
Q 2931 909 2931 1356 
Q 2931 1769 2642 2001 
Q 2353 2234 1838 2234 
L 1294 2234 
L 1294 2753 
L 1863 2753 
Q 2328 2753 2575 2939 
Q 2822 3125 2822 3475 
Q 2822 3834 2567 4026 
Q 2313 4219 1838 4219 
Q 1578 4219 1281 4162 
Q 984 4106 628 3988 
L 628 4550 
Q 988 4650 1302 4700 
Q 1616 4750 1894 4750 
Q 2613 4750 3031 4423 
Q 3450 4097 3450 3541 
Q 3450 3153 3228 2886 
Q 3006 2619 2597 2516 
z
" transform="scale(0.015625)"/>
     </defs>
     <use xlink:href="#DejaVuSans-33"/>
    </g>
   </g>
   <g id="text_18">
    <!-- 4 -->
    <g style="opacity: 0.5" transform="translate(179.971056 179.587515) scale(0.08 -0.08)">
     <use xlink:href="#DejaVuSans-34"/>
    </g>
   </g>
   <g id="text_19">
    <!-- 5 -->
    <g style="opacity: 0.5" transform="translate(176.344512 188.712318) scale(0.08 -0.08)">
     <defs>
      <path id="DejaVuSans-35" d="M 691 4666 
L 3169 4666 
L 3169 4134 
L 1269 4134 
L 1269 2991 
Q 1406 3038 1543 3061 
Q 1681 3084 1819 3084 
Q 2600 3084 3056 2656 
Q 3513 2228 3513 1497 
Q 3513 744 3044 326 
Q 2575 -91 1722 -91 
Q 1428 -91 1123 -41 
Q 819 9 494 109 
L 494 744 
Q 775 591 1075 516 
Q 1375 441 1709 441 
Q 2250 441 2565 725 
Q 2881 1009 2881 1497 
Q 2881 1984 2565 2268 
Q 2250 2553 1709 2553 
Q 1456 2553 1204 2497 
Q 953 2441 691 2322 
L 691 4666 
z
" transform="scale(0.015625)"/>
     </defs>
     <use xlink:href="#DejaVuSans-35"/>
    </g>
   </g>
   <g id="text_20">
    <!-- 6 -->
    <g style="opacity: 0.5" transform="translate(174.630807 196.894318) scale(0.08 -0.08)">
     <defs>
      <path id="DejaVuSans-36" d="M 2113 2584 
Q 1688 2584 1439 2293 
Q 1191 2003 1191 1497 
Q 1191 994 1439 701 
Q 1688 409 2113 409 
Q 2538 409 2786 701 
Q 3034 994 3034 1497 
Q 3034 2003 2786 2293 
Q 2538 2584 2113 2584 
z
M 3366 4563 
L 3366 3988 
Q 3128 4100 2886 4159 
Q 2644 4219 2406 4219 
Q 1781 4219 1451 3797 
Q 1122 3375 1075 2522 
Q 1259 2794 1537 2939 
Q 1816 3084 2150 3084 
Q 2853 3084 3261 2657 
Q 3669 2231 3669 1497 
Q 3669 778 3244 343 
Q 2819 -91 2113 -91 
Q 1303 -91 875 529 
Q 447 1150 447 2328 
Q 447 3434 972 4092 
Q 1497 4750 2381 4750 
Q 2619 4750 2861 4703 
Q 3103 4656 3366 4563 
z
" transform="scale(0.015625)"/>
     </defs>
     <use xlink:href="#DejaVuSans-36"/>
    </g>
   </g>
   <g id="text_21">
    <!-- 7 -->
    <g style="opacity: 0.5" transform="translate(174.402226 203.915141) scale(0.08 -0.08)">
     <defs>
      <path id="DejaVuSans-37" d="M 525 4666 
L 3525 4666 
L 3525 4397 
L 1831 0 
L 1172 0 
L 2766 4134 
L 525 4134 
L 525 4666 
z
" transform="scale(0.015625)"/>
     </defs>
     <use xlink:href="#DejaVuSans-37"/>
    </g>
   </g>
   <g id="text_22">
    <!-- 8 -->
    <g style="opacity: 0.5" transform="translate(173.595939 206.952278) scale(0.08 -0.08)">
     <defs>
      <path id="DejaVuSans-38" d="M 2034 2216 
Q 1584 2216 1326 1975 
Q 1069 1734 1069 1313 
Q 1069 891 1326 650 
Q 1584 409 2034 409 
Q 2484 409 2743 651 
Q 3003 894 3003 1313 
Q 3003 1734 2745 1975 
Q 2488 2216 2034 2216 
z
M 1403 2484 
Q 997 2584 770 2862 
Q 544 3141 544 3541 
Q 544 4100 942 4425 
Q 1341 4750 2034 4750 
Q 2731 4750 3128 4425 
Q 3525 4100 3525 3541 
Q 3525 3141 3298 2862 
Q 3072 2584 2669 2484 
Q 3125 2378 3379 2068 
Q 3634 1759 3634 1313 
Q 3634 634 3220 271 
Q 2806 -91 2034 -91 
Q 1263 -91 848 271 
Q 434 634 434 1313 
Q 434 1759 690 2068 
Q 947 2378 1403 2484 
z
M 1172 3481 
Q 1172 3119 1398 2916 
Q 1625 2713 2034 2713 
Q 2441 2713 2670 2916 
Q 2900 3119 2900 3481 
Q 2900 3844 2670 4047 
Q 2441 4250 2034 4250 
Q 1625 4250 1398 4047 
Q 1172 3844 1172 3481 
z
" transform="scale(0.015625)"/>
     </defs>
     <use xlink:href="#DejaVuSans-38"/>
    </g>
   </g>
   <g id="text_23">
    <!-- 9 -->
    <g style="opacity: 0.5" transform="translate(174.502902 208.716814) scale(0.08 -0.08)">
     <defs>
      <path id="DejaVuSans-39" d="M 703 97 
L 703 672 
Q 941 559 1184 500 
Q 1428 441 1663 441 
Q 2288 441 2617 861 
Q 2947 1281 2994 2138 
Q 2813 1869 2534 1725 
Q 2256 1581 1919 1581 
Q 1219 1581 811 2004 
Q 403 2428 403 3163 
Q 403 3881 828 4315 
Q 1253 4750 1959 4750 
Q 2769 4750 3195 4129 
Q 3622 3509 3622 2328 
Q 3622 1225 3098 567 
Q 2575 -91 1691 -91 
Q 1453 -91 1209 -44 
Q 966 3 703 97 
z
M 1959 2075 
Q 2384 2075 2632 2365 
Q 2881 2656 2881 3163 
Q 2881 3666 2632 3958 
Q 2384 4250 1959 4250 
Q 1534 4250 1286 3958 
Q 1038 3666 1038 3163 
Q 1038 2656 1286 2365 
Q 1534 2075 1959 2075 
z
" transform="scale(0.015625)"/>
     </defs>
     <use xlink:href="#DejaVuSans-39"/>
    </g>
   </g>
  </g>
 </g>
 <defs>
  <clipPath id="p5781909317">
   <rect x="45.9" y="43.2" width="277.2" height="277.2"/>
  </clipPath>
 </defs>
</svg>
