<?xml version="1.0" encoding="utf-8" standalone="no"?>
<!DOCTYPE svg PUBLIC "-//W3C//DTD SVG 1.1//EN"
  "http://www.w3.org/Graphics/SVG/1.1/DTD/svg11.dtd">
<svg xmlns:xlink="http://www.w3.org/1999/xlink" width="360pt" height="360pt" viewBox="0 0 360 360" xmlns="http://www.w3.org/2000/svg" version="1.1">
 <metadata>
  <rdf:RDF xmlns:dc="http://purl.org/dc/elements/1.1/" xmlns:cc="http://creativecommons.org/ns#" xmlns:rdf="http://www.w3.org/1999/02/22-rdf-syntax-ns#">
   <cc:Work>
    <dc:type rdf:resource="http://purl.org/dc/dcmitype/StillImage"/>
    <dc:date>2024-07-16T10:10:58.801981</dc:date>
    <dc:format>image/svg+xml</dc:format>
    <dc:creator>
     <cc:Agent>
      <dc:title>Matplotlib v3.8.4, https://matplotlib.org/</dc:title>
     </cc:Agent>
    </dc:creator>
   </cc:Work>
  </rdf:RDF>
 </metadata>
 <defs>
  <style type="text/css">*{stroke-linejoin: round; stroke-linecap: butt}</style>
 </defs>
 <g id="figure_1">
  <g id="patch_1">
   <path d="M 0 360 
L 360 360 
L 360 0 
L 0 0 
z
" style="fill: #ffffff"/>
  </g>
  <g id="axes_1">
   <g id="patch_2">
    <path d="M 45.9 320.4 
L 323.1 320.4 
L 323.1 43.2 
L 45.9 43.2 
z
" style="fill: #eaeaf2"/>
   </g>
   <g id="PathCollection_1">
    <defs>
     <path id="mb670fc1d4e" d="M -1.224745 1.224745 
L 1.224745 -1.224745 
M -1.224745 -1.224745 
L 1.224745 1.224745 
" style="stroke: #000000; stroke-opacity: 0.8; stroke-width: 1.5"/>
    </defs>
    <g clip-path="url(#p4d6b244b47)">
     <use xlink:href="#mb670fc1d4e" x="215.703922" y="239.661217" style="fill-opacity: 0.8; stroke: #000000; stroke-opacity: 0.8; stroke-width: 1.5"/>
    </g>
   </g>
   <g id="PathCollection_2"/>
   <g id="patch_3">
    <path d="M 219.780025 98.64 
C 219.780025 97.303376 219.248979 96.021317 218.303843 95.076182 
C 217.358708 94.131046 216.076649 93.6 214.740025 93.6 
C 213.403402 93.6 212.121343 94.131046 211.176207 95.076182 
C 210.231071 96.021317 209.700025 97.303376 209.700025 98.64 
C 209.700025 99.976624 210.231071 101.258683 211.176207 102.203818 
C 212.121343 103.148954 213.403402 103.68 214.740025 103.68 
C 216.076649 103.68 217.358708 103.148954 218.303843 102.203818 
C 219.248979 101.258683 219.780025 99.976624 219.780025 98.64 
z
" clip-path="url(#p4d6b244b47)" style="fill: #ffff00; opacity: 0.1"/>
   </g>
   <g id="PathCollection_3">
    <defs>
     <path id="m7e37d6bf1e" d="M 0 1 
C 0.265203 1 0.51958 0.894634 0.707107 0.707107 
C 0.894634 0.51958 1 0.265203 1 0 
C 1 -0.265203 0.894634 -0.51958 0.707107 -0.707107 
C 0.51958 -0.894634 0.265203 -1 0 -1 
C -0.265203 -1 -0.51958 -0.894634 -0.707107 -0.707107 
C -0.894634 -0.51958 -1 -0.265203 -1 0 
C -1 0.265203 -0.894634 0.51958 -0.707107 0.707107 
C -0.51958 0.894634 -0.265203 1 0 1 
z
" style="stroke: #000000; stroke-opacity: 0.8"/>
    </defs>
    <g clip-path="url(#p4d6b244b47)">
     <use xlink:href="#m7e37d6bf1e" x="214.740025" y="98.64" style="fill-opacity: 0.8; stroke: #000000; stroke-opacity: 0.8"/>
    </g>
   </g>
   <g id="PathCollection_4"/>
   <g id="patch_4">
    <path d="M 224.906146 111.239706 
C 224.906146 108.566458 223.844053 106.002341 221.953782 104.112069 
C 220.063511 102.221798 217.499393 101.159706 214.826146 101.159706 
C 212.152898 101.159706 209.588781 102.221798 207.698509 104.112069 
C 205.808238 106.002341 204.746146 108.566458 204.746146 111.239706 
C 204.746146 113.912953 205.808238 116.477071 207.698509 118.367342 
C 209.588781 120.257613 212.152898 121.319706 214.826146 121.319706 
C 217.499393 121.319706 220.063511 120.257613 221.953782 118.367342 
C 223.844053 116.477071 224.906146 113.912953 224.906146 111.239706 
z
" clip-path="url(#p4d6b244b47)" style="fill: #800080; opacity: 0.1"/>
   </g>
   <g id="PathCollection_5"/>
   <g id="patch_5">
    <path d="M 186.194205 104.945481 
C 185.014867 105.109993 183.946106 105.715362 183.223306 106.628261 
C 182.500506 107.54116 182.182679 108.687056 182.339824 109.813578 
C 182.496969 110.9401 183.116255 111.955273 184.061291 112.635517 
C 185.006327 113.315761 186.199956 113.605536 187.379295 113.441024 
C 188.558633 113.276511 189.627394 112.671143 190.350194 111.758244 
C 191.072994 110.845344 191.390821 109.699449 191.233676 108.572927 
C 191.076531 107.446404 190.457246 106.431231 189.512209 105.750988 
C 188.567173 105.070744 187.373544 104.780969 186.194205 104.945481 
z
" clip-path="url(#p4d6b244b47)" style="fill: #008000; opacity: 0.1"/>
   </g>
   <g id="patch_6">
    <path d="M 186.78675 109.193252 
L 191.996814 107.046806 
L 191.813472 109.558864 
L 214.826237 111.238449 
L 214.826054 111.240962 
L 191.813288 109.561377 
L 191.629946 112.073436 
z
" clip-path="url(#p4d6b244b47)" style="opacity: 0.3; stroke: #000000; stroke-linejoin: miter"/>
   </g>
   <g id="PathCollection_6">
    <g clip-path="url(#p4d6b244b47)">
     <use xlink:href="#m7e37d6bf1e" x="214.74" y="118.8" style="fill-opacity: 0.8; stroke: #000000; stroke-opacity: 0.8"/>
    </g>
   </g>
   <g id="PathCollection_7"/>
   <g id="patch_7">
    <path d="M 185.543484 112.159898 
C 182.965069 112.519575 180.633499 113.879558 179.062274 115.940326 
C 177.491049 118.001094 176.808453 120.594395 177.164821 123.149084 
C 177.521188 125.703774 178.887423 128.011272 180.962628 129.56338 
C 183.037832 131.115488 185.652575 131.785483 188.230991 131.425805 
C 190.809406 131.066128 193.140976 129.706145 194.712201 127.645377 
C 196.283426 125.584609 196.966022 122.991308 196.609654 120.436619 
C 196.253287 117.88193 194.887052 115.574431 192.811847 114.022323 
C 190.736643 112.470215 188.121899 111.800221 185.543484 112.159898 
z
" clip-path="url(#p4d6b244b47)" style="fill: #800080; opacity: 0.1"/>
   </g>
   <g id="PathCollection_8"/>
   <g id="patch_8">
    <path d="M 185.293421 116.179268 
C 184.216897 116.292599 183.227166 116.808299 182.542205 117.61279 
C 181.857245 118.417281 181.532978 119.444881 181.640821 120.469272 
C 181.748664 121.493663 182.279812 122.431209 183.117285 123.075426 
C 183.954759 123.719643 185.030183 124.017933 186.106706 123.904602 
C 187.18323 123.79127 188.172961 123.275571 188.857922 122.471079 
C 189.542882 121.666588 189.867149 120.638988 189.759306 119.614597 
C 189.651463 118.590206 189.120315 117.65266 188.282842 117.008443 
C 187.445368 116.364227 186.369944 116.065936 185.293421 116.179268 
z
" clip-path="url(#p4d6b244b47)" style="fill: #008000; opacity: 0.1"/>
   </g>
   <g id="patch_9">
    <path d="M 185.700064 120.041935 
L 190.614247 122.799252 
L 188.529526 124.212755 
L 186.88828 121.792145 
L 186.886195 121.793559 
L 188.527441 124.214169 
L 186.44272 125.627672 
z
" clip-path="url(#p4d6b244b47)" style="opacity: 0.3; stroke: #000000; stroke-linejoin: miter"/>
   </g>
   <g id="PathCollection_9">
    <g clip-path="url(#p4d6b244b47)">
     <use xlink:href="#m7e37d6bf1e" x="222.3" y="136.44" style="fill-opacity: 0.8; stroke: #000000; stroke-opacity: 0.8"/>
    </g>
   </g>
   <g id="PathCollection_10"/>
   <g id="patch_10">
    <path d="M 183.896199 123.114199 
C 181.354577 123.381768 179.022113 124.639615 177.412504 126.610713 
C 175.802895 128.58181 175.04756 131.105227 175.312852 133.625211 
C 175.578144 136.145194 176.842402 138.455998 178.82719 140.048695 
C 180.811978 141.641392 183.355245 142.385945 185.896867 142.118376 
C 188.438489 141.850806 190.770953 140.592959 192.380562 138.621861 
C 193.99017 136.650764 194.745506 134.127347 194.480214 131.607363 
C 194.214922 129.08738 192.950663 126.776576 190.965876 125.183879 
C 188.981088 123.591182 186.437821 122.846629 183.896199 123.114199 
z
" clip-path="url(#p4d6b244b47)" style="fill: #800080; opacity: 0.1"/>
   </g>
   <g id="PathCollection_11"/>
   <g id="patch_11">
    <path d="M 190.82571 126.811276 
C 189.558962 126.956352 188.398994 127.576338 187.601276 128.534688 
C 186.803558 129.493038 186.43322 130.711506 186.571825 131.921741 
C 186.710429 133.131975 187.34666 134.235165 188.340394 134.988345 
C 189.334128 135.741525 190.604232 136.083202 191.87098 135.938125 
C 193.137728 135.793048 194.297696 135.173063 195.095414 134.214713 
C 195.893132 133.256363 196.26347 132.037894 196.124866 130.82766 
C 195.986261 129.617426 195.350031 128.514236 194.356296 127.761056 
C 193.362562 127.007876 192.092458 126.666199 190.82571 126.811276 
z
" clip-path="url(#p4d6b244b47)" style="fill: #008000; opacity: 0.1"/>
   </g>
   <g id="patch_12">
    <path d="M 191.348345 131.3747 
L 186.875365 134.801718 
L 186.399392 132.32836 
L 184.896771 132.617524 
L 184.896295 132.61505 
L 186.398916 132.325885 
L 185.922943 129.852527 
z
" clip-path="url(#p4d6b244b47)" style="opacity: 0.3; stroke: #000000; stroke-linejoin: miter"/>
   </g>
   <g id="PathCollection_12">
    <g clip-path="url(#p4d6b244b47)">
     <use xlink:href="#m7e37d6bf1e" x="232.38" y="144" style="fill-opacity: 0.8; stroke: #000000; stroke-opacity: 0.8"/>
    </g>
   </g>
   <g id="PathCollection_13"/>
   <g id="patch_13">
    <path d="M 188.062109 133.98735 
C 185.436286 134.288078 183.035917 135.609135 181.389656 137.659574 
C 179.743395 139.710014 178.985652 142.322426 179.283312 144.921458 
C 179.580971 147.520489 180.909729 149.893941 182.976944 151.519087 
C 185.044158 153.144234 187.68105 153.888389 190.306873 153.587661 
C 192.932697 153.286934 195.333065 151.965877 196.979326 149.915437 
C 198.625587 147.864998 199.38333 145.252585 199.08567 142.653554 
C 198.788011 140.054522 197.459253 137.68107 195.392038 136.055924 
C 193.324824 134.430778 190.687933 133.686622 188.062109 133.98735 
z
" clip-path="url(#p4d6b244b47)" style="fill: #800080; opacity: 0.1"/>
   </g>
   <g id="PathCollection_14"/>
   <g id="patch_14">
    <path d="M 199.43965 137.940333 
C 198.101814 138.092223 196.876249 138.745753 196.032871 139.756993 
C 195.189494 140.768232 194.797163 142.054617 194.942284 143.332836 
C 195.087404 144.611056 195.758129 145.776748 196.806738 146.573184 
C 197.855347 147.369619 199.196226 147.731772 200.534063 147.579883 
C 201.871899 147.427993 203.097464 146.774463 203.940842 145.763223 
C 204.784219 144.751984 205.17655 143.465599 205.03143 142.18738 
C 204.886309 140.90916 204.215584 139.743468 203.166975 138.947032 
C 202.118366 138.150597 200.777487 137.788444 199.43965 137.940333 
z
" clip-path="url(#p4d6b244b47)" style="fill: #008000; opacity: 0.1"/>
   </g>
   <g id="patch_15">
    <path d="M 199.986857 142.760108 
L 195.208095 145.745981 
L 194.969617 143.238556 
L 189.18461 143.78876 
L 189.184372 143.786251 
L 194.969379 143.236048 
L 194.730901 140.728623 
z
" clip-path="url(#p4d6b244b47)" style="opacity: 0.3; stroke: #000000; stroke-linejoin: miter"/>
   </g>
   <g id="PathCollection_15">
    <g clip-path="url(#p4d6b244b47)">
     <use xlink:href="#m7e37d6bf1e" x="234.9" y="154.08" style="fill-opacity: 0.8; stroke: #000000; stroke-opacity: 0.8"/>
    </g>
   </g>
   <g id="PathCollection_16"/>
   <g id="patch_16">
    <path d="M 196.102576 145.131659 
C 193.441507 145.433779 191.007775 146.769113 189.337381 148.843568 
C 187.666987 150.918022 186.896312 153.562228 187.195087 156.19383 
C 187.493862 158.825431 188.837694 161.229569 190.93062 162.876761 
C 193.023546 164.523953 195.694687 165.279712 198.355756 164.977591 
C 201.016825 164.67547 203.450557 163.340137 205.120951 161.265682 
C 206.791345 159.191227 207.56202 156.547021 207.263245 153.91542 
C 206.96447 151.283818 205.620638 148.87968 203.527712 147.232488 
C 201.434786 145.585297 198.763645 144.829538 196.102576 145.131659 
z
" clip-path="url(#p4d6b244b47)" style="fill: #800080; opacity: 0.1"/>
   </g>
   <g id="PathCollection_17"/>
   <g id="patch_17">
    <path d="M 204.767993 149.391778 
C 203.409337 149.543499 202.163725 150.204658 201.30549 151.229645 
C 200.447254 152.254631 200.046466 153.559758 200.191394 154.857587 
C 200.336323 156.155416 201.015134 157.339985 202.078329 158.150406 
C 203.141523 158.960827 204.502296 159.330932 205.860952 159.179212 
C 207.219609 159.027491 208.46522 158.366331 209.323456 157.341345 
C 210.181691 156.316359 210.582479 155.011231 210.437551 153.713403 
C 210.292623 152.415574 209.613811 151.231005 208.550617 150.420584 
C 207.487422 149.610163 206.126649 149.240057 204.767993 149.391778 
z
" clip-path="url(#p4d6b244b47)" style="fill: #008000; opacity: 0.1"/>
   </g>
   <g id="patch_18">
    <path d="M 205.314473 154.285495 
L 200.535765 157.271455 
L 200.297242 154.764034 
L 197.229285 155.055879 
L 197.229047 155.05337 
L 200.297004 154.761525 
L 200.058481 152.254105 
z
" clip-path="url(#p4d6b244b47)" style="opacity: 0.3; stroke: #000000; stroke-linejoin: miter"/>
   </g>
   <g id="PathCollection_18">
    <g clip-path="url(#p4d6b244b47)">
     <use xlink:href="#m7e37d6bf1e" x="237.42" y="179.28" style="fill-opacity: 0.8; stroke: #000000; stroke-opacity: 0.8"/>
    </g>
   </g>
   <g id="PathCollection_19"/>
   <g id="patch_19">
    <path d="M 199.937983 156.181343 
C 197.265976 156.479725 194.820247 157.815444 193.139439 159.894323 
C 191.458631 161.973202 190.679976 164.625511 190.974962 167.267108 
C 191.269948 169.908705 192.614492 172.323916 194.712473 173.980819 
C 196.810454 175.637723 199.490582 176.401039 202.162589 176.102657 
C 204.834596 175.804275 207.280325 174.468556 208.961133 172.389677 
C 210.64194 170.310797 211.420596 167.658489 211.12561 165.016892 
C 210.830624 162.375295 209.48608 159.960084 207.388099 158.30318 
C 205.290118 156.646277 202.60999 155.882961 199.937983 156.181343 
z
" clip-path="url(#p4d6b244b47)" style="fill: #800080; opacity: 0.1"/>
   </g>
   <g id="PathCollection_20"/>
   <g id="patch_20">
    <path d="M 216.411814 160.981143 
C 215.050126 161.131732 213.801169 161.792882 212.940011 162.818982 
C 212.078853 163.845082 211.675803 165.152356 211.819629 166.452892 
C 211.963456 167.753427 212.642415 168.941042 213.706974 169.754177 
C 214.771533 170.567312 216.134776 170.939578 217.496464 170.788989 
C 218.858152 170.6384 220.10711 169.97725 220.968268 168.95115 
C 221.829426 167.92505 222.232476 166.617776 222.088649 165.31724 
C 221.944823 164.016705 221.265864 162.82909 220.201304 162.015955 
C 219.136745 161.20282 217.773502 160.830554 216.411814 160.981143 
z
" clip-path="url(#p4d6b244b47)" style="fill: #008000; opacity: 0.1"/>
   </g>
   <g id="patch_21">
    <path d="M 216.954139 165.885066 
L 211.955503 168.48615 
L 211.914817 165.967739 
L 201.050306 166.14326 
L 201.050266 166.14074 
L 211.914777 165.965219 
L 211.87409 163.446808 
z
" clip-path="url(#p4d6b244b47)" style="opacity: 0.3; stroke: #000000; stroke-linejoin: miter"/>
   </g>
   <g id="PathCollection_21">
    <g clip-path="url(#p4d6b244b47)">
     <use xlink:href="#m7e37d6bf1e" x="234.9" y="194.4" style="fill-opacity: 0.8; stroke: #000000; stroke-opacity: 0.8"/>
    </g>
   </g>
   <g id="PathCollection_22"/>
   <g id="patch_22">
    <path d="M 210.932235 167.518347 
C 208.25845 167.81404 205.809952 169.147804 204.125994 171.225891 
C 202.442035 173.303979 201.660104 175.956723 201.952412 178.599888 
C 202.24472 181.243054 203.5874 183.660837 205.684745 185.32075 
C 207.782089 186.980663 210.462857 187.747181 213.136642 187.451487 
C 215.810426 187.155793 218.258925 185.82203 219.942883 183.743943 
C 221.626842 181.665855 222.408773 179.013111 222.116465 176.369945 
C 221.824157 173.72678 220.481476 171.308996 218.384132 169.649083 
C 216.286788 167.989171 213.60602 167.222653 210.932235 167.518347 
z
" clip-path="url(#p4d6b244b47)" style="fill: #800080; opacity: 0.1"/>
   </g>
   <g id="PathCollection_23"/>
   <g id="patch_23">
    <path d="M 223.290606 172.64778 
C 221.935194 172.796723 220.691624 173.453832 219.833777 174.474387 
C 218.975929 175.494941 218.573845 176.795616 218.716077 178.089954 
C 218.858309 179.384292 219.533246 180.566615 220.59224 181.376532 
C 221.651234 182.186448 223.007824 182.55783 224.363236 182.408887 
C 225.718647 182.259943 226.962218 181.602834 227.820065 180.58228 
C 228.677912 179.561726 229.079997 178.26105 228.937765 176.966712 
C 228.795532 175.672374 228.120596 174.490051 227.061601 173.680135 
C 226.002607 172.870219 224.646018 172.498836 223.290606 172.64778 
z
" clip-path="url(#p4d6b244b47)" style="fill: #008000; opacity: 0.1"/>
   </g>
   <g id="patch_24">
    <path d="M 223.826921 177.528333 
L 218.777677 180.029761 
L 218.78695 177.511038 
L 212.034434 177.486177 
L 212.034443 177.483657 
L 218.78696 177.508518 
L 218.796233 174.989795 
z
" clip-path="url(#p4d6b244b47)" style="opacity: 0.3; stroke: #000000; stroke-linejoin: miter"/>
   </g>
   <g id="PathCollection_24">
    <g clip-path="url(#p4d6b244b47)">
     <use xlink:href="#m7e37d6bf1e" x="181.98" y="191.88" style="fill-opacity: 0.8; stroke: #000000; stroke-opacity: 0.8"/>
    </g>
   </g>
   <g id="PathCollection_25"/>
   <g id="patch_25">
    <path d="M 229.998545 177.866863 
C 227.327799 178.160346 224.881353 179.490841 223.198007 181.565321 
C 221.514661 183.639801 220.731854 186.288894 221.021988 188.929169 
C 221.312123 191.569444 222.651512 193.985333 224.745171 195.644765 
C 226.838829 197.304198 229.515819 198.071688 232.186564 197.778205 
C 234.85731 197.484721 237.303756 196.154227 238.987102 194.079747 
C 240.670448 192.005267 241.453255 189.356173 241.163121 186.715898 
C 240.872986 184.075624 239.533597 181.659734 237.439938 180.000302 
C 235.34628 178.34087 232.66929 177.57338 229.998545 177.866863 
z
" clip-path="url(#p4d6b244b47)" style="fill: #800080; opacity: 0.1"/>
   </g>
   <g id="PathCollection_26"/>
   <g id="patch_26">
    <path d="M 186.719111 183.287703 
C 185.373309 183.434983 184.138317 184.086781 183.286128 185.099545 
C 182.433938 186.112309 182.034129 187.403352 182.174754 188.688336 
C 182.315378 189.973321 182.984955 191.147334 184.036017 191.951812 
C 185.08708 192.75629 186.433813 193.125552 187.779615 192.978272 
C 189.125417 192.830992 190.360409 192.179194 191.212598 191.16643 
C 192.064787 190.153666 192.464596 188.862623 192.323972 187.577639 
C 192.183347 186.292654 191.513771 185.118642 190.462708 184.314163 
C 189.411646 183.509685 188.064913 183.140423 186.719111 183.287703 
z
" clip-path="url(#p4d6b244b47)" style="fill: #008000; opacity: 0.1"/>
   </g>
   <g id="patch_27">
    <path d="M 187.249363 188.132988 
L 192.271393 185.577363 
L 192.289228 188.09604 
L 231.092546 187.821274 
L 231.092563 187.823794 
L 192.289245 188.09856 
L 192.30708 190.617237 
z
" clip-path="url(#p4d6b244b47)" style="opacity: 0.3; stroke: #000000; stroke-linejoin: miter"/>
   </g>
   <g id="PathCollection_27">
    <g clip-path="url(#p4d6b244b47)">
     <use xlink:href="#m7e37d6bf1e" x="192.06" y="207" style="fill-opacity: 0.8; stroke: #000000; stroke-opacity: 0.8"/>
    </g>
   </g>
   <g id="PathCollection_28"/>
   <g id="patch_28">
    <path d="M 193.550219 188.400544 
C 190.884241 188.6923 188.441699 190.01936 186.760535 192.089455 
C 185.079371 194.15955 184.296844 196.803665 184.585297 199.439465 
C 184.873751 202.075266 186.209633 204.487549 188.298732 206.145039 
C 190.387831 207.802529 193.05958 208.569897 195.725559 208.278141 
C 198.391537 207.986385 200.834079 206.659325 202.515243 204.58923 
C 204.196408 202.519135 204.978934 199.87502 204.690481 197.23922 
C 204.402027 194.603419 203.066145 192.191136 200.977046 190.533646 
C 198.887947 188.876156 196.216198 188.108787 193.550219 188.400544 
z
" clip-path="url(#p4d6b244b47)" style="fill: #800080; opacity: 0.1"/>
   </g>
   <g id="PathCollection_29"/>
   <g id="patch_29">
    <path d="M 187.1384 193.957696 
C 185.758318 194.111571 184.492989 194.783074 183.621087 195.824314 
C 182.749186 196.865554 182.341898 198.191519 182.488925 199.51018 
C 182.635952 200.82884 183.325289 202.032534 184.405118 202.856162 
C 185.484947 203.679789 186.867105 204.056105 188.247187 203.90223 
C 189.627269 203.748355 190.892598 203.076852 191.7645 202.035612 
C 192.636401 200.994371 193.043689 199.668407 192.896662 198.349746 
C 192.749635 197.031086 192.060298 195.827392 190.980469 195.003764 
C 189.90064 194.180137 188.518482 193.803821 187.1384 193.957696 
z
" clip-path="url(#p4d6b244b47)" style="fill: #008000; opacity: 0.1"/>
   </g>
   <g id="patch_30">
    <path d="M 187.692793 198.929963 
L 192.501133 195.991959 
L 192.71456 198.50164 
L 194.637782 198.338087 
L 194.637996 198.340598 
L 192.714774 198.504151 
L 192.9282 201.013833 
z
" clip-path="url(#p4d6b244b47)" style="opacity: 0.3; stroke: #000000; stroke-linejoin: miter"/>
   </g>
   <g id="PathCollection_30">
    <g clip-path="url(#p4d6b244b47)">
     <use xlink:href="#m7e37d6bf1e" x="212.22" y="201.96" style="fill-opacity: 0.8; stroke: #000000; stroke-opacity: 0.8"/>
    </g>
   </g>
   <g id="PathCollection_31"/>
   <g id="patch_31">
    <path d="M 187.737274 201.476881 
C 185.054271 201.776028 182.598272 203.116587 180.910182 205.203315 
C 179.222092 207.290043 178.439736 209.952568 178.735419 212.6045 
C 179.031102 215.256432 180.380682 217.681252 182.486931 219.344922 
C 184.59318 221.008592 187.284131 221.77528 189.967134 221.476133 
C 192.650136 221.176986 195.106135 219.836427 196.794225 217.749699 
C 198.482315 215.662971 199.264671 213.000446 198.968988 210.348514 
C 198.673305 207.696582 197.323725 205.271762 195.217476 203.608092 
C 193.111227 201.944422 190.420276 201.177734 187.737274 201.476881 
z
" clip-path="url(#p4d6b244b47)" style="fill: #800080; opacity: 0.1"/>
   </g>
   <g id="PathCollection_32"/>
   <g id="patch_32">
    <path d="M 197.915348 207.141164 
C 196.526011 207.295808 195.252093 207.971523 194.374159 209.019492 
C 193.496225 210.06746 193.085954 211.402119 193.233705 212.729527 
C 193.381456 214.056934 194.075165 215.268711 195.16205 216.09798 
C 196.248935 216.927249 197.640257 217.306302 199.029594 217.151658 
C 200.418931 216.997014 201.692849 216.321299 202.570783 215.27333 
C 203.448717 214.225362 203.858987 212.890703 203.711237 211.563296 
C 203.563486 210.235888 202.869777 209.024111 201.782892 208.194842 
C 200.696007 207.365573 199.304685 206.98652 197.915348 207.141164 
z
" clip-path="url(#p4d6b244b47)" style="fill: #008000; opacity: 0.1"/>
   </g>
   <g id="patch_33">
    <path d="M 198.472471 212.146411 
L 193.269591 214.310213 
L 193.444559 211.797557 
L 188.852116 211.477764 
L 188.852291 211.47525 
L 193.444734 211.795043 
L 193.619702 209.282388 
z
" clip-path="url(#p4d6b244b47)" style="opacity: 0.3; stroke: #000000; stroke-linejoin: miter"/>
   </g>
   <g id="PathCollection_33">
    <g clip-path="url(#p4d6b244b47)">
     <use xlink:href="#m7e37d6bf1e" x="212.22" y="214.56" style="fill-opacity: 0.8; stroke: #000000; stroke-opacity: 0.8"/>
    </g>
   </g>
   <g id="PathCollection_34"/>
   <g id="patch_34">
    <path d="M 199.089798 214.610551 
C 196.401982 214.909725 193.941362 216.25206 192.24986 218.341919 
C 190.558357 220.431779 189.774077 223.098537 190.069748 225.754871 
C 190.365419 228.411204 191.7169 230.840235 193.826543 232.506998 
C 195.936187 234.17376 198.63175 234.942171 201.319566 234.642996 
C 204.007382 234.343821 206.468002 233.001487 208.159504 230.911627 
C 209.851007 228.821767 210.635287 226.15501 210.339616 223.498676 
C 210.043945 220.842343 208.692464 218.413312 206.582821 216.746549 
C 204.473177 215.079786 201.777614 214.311376 199.089798 214.610551 
z
" clip-path="url(#p4d6b244b47)" style="fill: #800080; opacity: 0.1"/>
   </g>
   <g id="PathCollection_35"/>
   <g id="patch_35">
    <path d="M 201.521299 220.636013 
C 200.139084 220.788743 198.871257 221.459802 197.997042 222.501399 
C 197.122828 223.542995 196.713602 224.870087 196.859491 226.190396 
C 197.00538 227.510706 197.694474 228.716438 198.775007 229.542041 
C 199.855541 230.367645 201.239293 230.745715 202.621508 230.592985 
C 204.003724 230.440256 205.271551 229.769196 206.145765 228.7276 
C 207.01998 227.686003 207.429206 226.358912 207.283317 225.038602 
C 207.137427 223.718292 206.448333 222.512561 205.3678 221.686957 
C 204.287267 220.861353 202.903515 220.483283 201.521299 220.636013 
z
" clip-path="url(#p4d6b244b47)" style="fill: #008000; opacity: 0.1"/>
   </g>
   <g id="patch_36">
    <path d="M 202.071404 225.614499 
L 196.438006 225.48476 
L 197.615992 223.258463 
L 200.204093 224.627887 
L 200.205271 224.62566 
L 197.617171 223.256235 
L 198.795156 221.029938 
z
" clip-path="url(#p4d6b244b47)" style="opacity: 0.3; stroke: #000000; stroke-linejoin: miter"/>
   </g>
   <g id="matplotlib.axis_1">
    <g id="xtick_1">
     <g id="line2d_1">
      <path d="M 83.7 320.4 
L 83.7 43.2 
" clip-path="url(#p4d6b244b47)" style="fill: none; stroke: #b0b0b0; stroke-opacity: 0.3; stroke-width: 0.8; stroke-linecap: square"/>
     </g>
     <g id="line2d_2">
      <defs>
       <path id="maad1d5c7bb" d="M 0 0 
L 0 3.5 
" style="stroke: #000000; stroke-width: 0.8"/>
      </defs>
      <g>
       <use xlink:href="#maad1d5c7bb" x="83.7" y="320.4" style="stroke: #000000; stroke-width: 0.8"/>
      </g>
     </g>
     <g id="text_1">
      <!-- −40 -->
      <g transform="translate(73.147656 334.998438) scale(0.1 -0.1)">
       <defs>
        <path id="DejaVuSans-2212" d="M 678 2272 
L 4684 2272 
L 4684 1741 
L 678 1741 
L 678 2272 
z
" transform="scale(0.015625)"/>
        <path id="DejaVuSans-34" d="M 2419 4116 
L 825 1625 
L 2419 1625 
L 2419 4116 
z
M 2253 4666 
L 3047 4666 
L 3047 1625 
L 3713 1625 
L 3713 1100 
L 3047 1100 
L 3047 0 
L 2419 0 
L 2419 1100 
L 313 1100 
L 313 1709 
L 2253 4666 
z
" transform="scale(0.015625)"/>
        <path id="DejaVuSans-30" d="M 2034 4250 
Q 1547 4250 1301 3770 
Q 1056 3291 1056 2328 
Q 1056 1369 1301 889 
Q 1547 409 2034 409 
Q 2525 409 2770 889 
Q 3016 1369 3016 2328 
Q 3016 3291 2770 3770 
Q 2525 4250 2034 4250 
z
M 2034 4750 
Q 2819 4750 3233 4129 
Q 3647 3509 3647 2328 
Q 3647 1150 3233 529 
Q 2819 -91 2034 -91 
Q 1250 -91 836 529 
Q 422 1150 422 2328 
Q 422 3509 836 4129 
Q 1250 4750 2034 4750 
z
" transform="scale(0.015625)"/>
       </defs>
       <use xlink:href="#DejaVuSans-2212"/>
       <use xlink:href="#DejaVuSans-34" x="83.789062"/>
       <use xlink:href="#DejaVuSans-30" x="147.412109"/>
      </g>
     </g>
    </g>
    <g id="xtick_2">
     <g id="line2d_3">
      <path d="M 134.1 320.4 
L 134.1 43.2 
" clip-path="url(#p4d6b244b47)" style="fill: none; stroke: #b0b0b0; stroke-opacity: 0.3; stroke-width: 0.8; stroke-linecap: square"/>
     </g>
     <g id="line2d_4">
      <g>
       <use xlink:href="#maad1d5c7bb" x="134.1" y="320.4" style="stroke: #000000; stroke-width: 0.8"/>
      </g>
     </g>
     <g id="text_2">
      <!-- −20 -->
      <g transform="translate(123.547656 334.998438) scale(0.1 -0.1)">
       <defs>
        <path id="DejaVuSans-32" d="M 1228 531 
L 3431 531 
L 3431 0 
L 469 0 
L 469 531 
Q 828 903 1448 1529 
Q 2069 2156 2228 2338 
Q 2531 2678 2651 2914 
Q 2772 3150 2772 3378 
Q 2772 3750 2511 3984 
Q 2250 4219 1831 4219 
Q 1534 4219 1204 4116 
Q 875 4013 500 3803 
L 500 4441 
Q 881 4594 1212 4672 
Q 1544 4750 1819 4750 
Q 2544 4750 2975 4387 
Q 3406 4025 3406 3419 
Q 3406 3131 3298 2873 
Q 3191 2616 2906 2266 
Q 2828 2175 2409 1742 
Q 1991 1309 1228 531 
z
" transform="scale(0.015625)"/>
       </defs>
       <use xlink:href="#DejaVuSans-2212"/>
       <use xlink:href="#DejaVuSans-32" x="83.789062"/>
       <use xlink:href="#DejaVuSans-30" x="147.412109"/>
      </g>
     </g>
    </g>
    <g id="xtick_3">
     <g id="line2d_5">
      <path d="M 184.5 320.4 
L 184.5 43.2 
" clip-path="url(#p4d6b244b47)" style="fill: none; stroke: #b0b0b0; stroke-opacity: 0.3; stroke-width: 0.8; stroke-linecap: square"/>
     </g>
     <g id="line2d_6">
      <g>
       <use xlink:href="#maad1d5c7bb" x="184.5" y="320.4" style="stroke: #000000; stroke-width: 0.8"/>
      </g>
     </g>
     <g id="text_3">
      <!-- 0 -->
      <g transform="translate(181.31875 334.998438) scale(0.1 -0.1)">
       <use xlink:href="#DejaVuSans-30"/>
      </g>
     </g>
    </g>
    <g id="xtick_4">
     <g id="line2d_7">
      <path d="M 234.9 320.4 
L 234.9 43.2 
" clip-path="url(#p4d6b244b47)" style="fill: none; stroke: #b0b0b0; stroke-opacity: 0.3; stroke-width: 0.8; stroke-linecap: square"/>
     </g>
     <g id="line2d_8">
      <g>
       <use xlink:href="#maad1d5c7bb" x="234.9" y="320.4" style="stroke: #000000; stroke-width: 0.8"/>
      </g>
     </g>
     <g id="text_4">
      <!-- 20 -->
      <g transform="translate(228.5375 334.998438) scale(0.1 -0.1)">
       <use xlink:href="#DejaVuSans-32"/>
       <use xlink:href="#DejaVuSans-30" x="63.623047"/>
      </g>
     </g>
    </g>
    <g id="xtick_5">
     <g id="line2d_9">
      <path d="M 285.3 320.4 
L 285.3 43.2 
" clip-path="url(#p4d6b244b47)" style="fill: none; stroke: #b0b0b0; stroke-opacity: 0.3; stroke-width: 0.8; stroke-linecap: square"/>
     </g>
     <g id="line2d_10">
      <g>
       <use xlink:href="#maad1d5c7bb" x="285.3" y="320.4" style="stroke: #000000; stroke-width: 0.8"/>
      </g>
     </g>
     <g id="text_5">
      <!-- 40 -->
      <g transform="translate(278.9375 334.998438) scale(0.1 -0.1)">
       <use xlink:href="#DejaVuSans-34"/>
       <use xlink:href="#DejaVuSans-30" x="63.623047"/>
      </g>
     </g>
    </g>
    <g id="text_6">
     <!-- X Position -->
     <g transform="translate(160.021875 348.676562) scale(0.1 -0.1)">
      <defs>
       <path id="DejaVuSans-58" d="M 403 4666 
L 1081 4666 
L 2241 2931 
L 3406 4666 
L 4084 4666 
L 2584 2425 
L 4184 0 
L 3506 0 
L 2194 1984 
L 872 0 
L 191 0 
L 1856 2491 
L 403 4666 
z
" transform="scale(0.015625)"/>
       <path id="DejaVuSans-20" transform="scale(0.015625)"/>
       <path id="DejaVuSans-50" d="M 1259 4147 
L 1259 2394 
L 2053 2394 
Q 2494 2394 2734 2622 
Q 2975 2850 2975 3272 
Q 2975 3691 2734 3919 
Q 2494 4147 2053 4147 
L 1259 4147 
z
M 628 4666 
L 2053 4666 
Q 2838 4666 3239 4311 
Q 3641 3956 3641 3272 
Q 3641 2581 3239 2228 
Q 2838 1875 2053 1875 
L 1259 1875 
L 1259 0 
L 628 0 
L 628 4666 
z
" transform="scale(0.015625)"/>
       <path id="DejaVuSans-6f" d="M 1959 3097 
Q 1497 3097 1228 2736 
Q 959 2375 959 1747 
Q 959 1119 1226 758 
Q 1494 397 1959 397 
Q 2419 397 2687 759 
Q 2956 1122 2956 1747 
Q 2956 2369 2687 2733 
Q 2419 3097 1959 3097 
z
M 1959 3584 
Q 2709 3584 3137 3096 
Q 3566 2609 3566 1747 
Q 3566 888 3137 398 
Q 2709 -91 1959 -91 
Q 1206 -91 779 398 
Q 353 888 353 1747 
Q 353 2609 779 3096 
Q 1206 3584 1959 3584 
z
" transform="scale(0.015625)"/>
       <path id="DejaVuSans-73" d="M 2834 3397 
L 2834 2853 
Q 2591 2978 2328 3040 
Q 2066 3103 1784 3103 
Q 1356 3103 1142 2972 
Q 928 2841 928 2578 
Q 928 2378 1081 2264 
Q 1234 2150 1697 2047 
L 1894 2003 
Q 2506 1872 2764 1633 
Q 3022 1394 3022 966 
Q 3022 478 2636 193 
Q 2250 -91 1575 -91 
Q 1294 -91 989 -36 
Q 684 19 347 128 
L 347 722 
Q 666 556 975 473 
Q 1284 391 1588 391 
Q 1994 391 2212 530 
Q 2431 669 2431 922 
Q 2431 1156 2273 1281 
Q 2116 1406 1581 1522 
L 1381 1569 
Q 847 1681 609 1914 
Q 372 2147 372 2553 
Q 372 3047 722 3315 
Q 1072 3584 1716 3584 
Q 2034 3584 2315 3537 
Q 2597 3491 2834 3397 
z
" transform="scale(0.015625)"/>
       <path id="DejaVuSans-69" d="M 603 3500 
L 1178 3500 
L 1178 0 
L 603 0 
L 603 3500 
z
M 603 4863 
L 1178 4863 
L 1178 4134 
L 603 4134 
L 603 4863 
z
" transform="scale(0.015625)"/>
       <path id="DejaVuSans-74" d="M 1172 4494 
L 1172 3500 
L 2356 3500 
L 2356 3053 
L 1172 3053 
L 1172 1153 
Q 1172 725 1289 603 
Q 1406 481 1766 481 
L 2356 481 
L 2356 0 
L 1766 0 
Q 1100 0 847 248 
Q 594 497 594 1153 
L 594 3053 
L 172 3053 
L 172 3500 
L 594 3500 
L 594 4494 
L 1172 4494 
z
" transform="scale(0.015625)"/>
       <path id="DejaVuSans-6e" d="M 3513 2113 
L 3513 0 
L 2938 0 
L 2938 2094 
Q 2938 2591 2744 2837 
Q 2550 3084 2163 3084 
Q 1697 3084 1428 2787 
Q 1159 2491 1159 1978 
L 1159 0 
L 581 0 
L 581 3500 
L 1159 3500 
L 1159 2956 
Q 1366 3272 1645 3428 
Q 1925 3584 2291 3584 
Q 2894 3584 3203 3211 
Q 3513 2838 3513 2113 
z
" transform="scale(0.015625)"/>
      </defs>
      <use xlink:href="#DejaVuSans-58"/>
      <use xlink:href="#DejaVuSans-20" x="68.505859"/>
      <use xlink:href="#DejaVuSans-50" x="100.292969"/>
      <use xlink:href="#DejaVuSans-6f" x="156.970703"/>
      <use xlink:href="#DejaVuSans-73" x="218.152344"/>
      <use xlink:href="#DejaVuSans-69" x="270.251953"/>
      <use xlink:href="#DejaVuSans-74" x="298.035156"/>
      <use xlink:href="#DejaVuSans-69" x="337.244141"/>
      <use xlink:href="#DejaVuSans-6f" x="365.027344"/>
      <use xlink:href="#DejaVuSans-6e" x="426.208984"/>
     </g>
    </g>
   </g>
   <g id="matplotlib.axis_2">
    <g id="ytick_1">
     <g id="line2d_11">
      <path d="M 45.9 282.6 
L 323.1 282.6 
" clip-path="url(#p4d6b244b47)" style="fill: none; stroke: #b0b0b0; stroke-opacity: 0.3; stroke-width: 0.8; stroke-linecap: square"/>
     </g>
     <g id="line2d_12">
      <defs>
       <path id="m3bd8406852" d="M 0 0 
L -3.5 0 
" style="stroke: #000000; stroke-width: 0.8"/>
      </defs>
      <g>
       <use xlink:href="#m3bd8406852" x="45.9" y="282.6" style="stroke: #000000; stroke-width: 0.8"/>
      </g>
     </g>
     <g id="text_7">
      <!-- −40 -->
      <g transform="translate(17.795312 286.399219) scale(0.1 -0.1)">
       <use xlink:href="#DejaVuSans-2212"/>
       <use xlink:href="#DejaVuSans-34" x="83.789062"/>
       <use xlink:href="#DejaVuSans-30" x="147.412109"/>
      </g>
     </g>
    </g>
    <g id="ytick_2">
     <g id="line2d_13">
      <path d="M 45.9 232.2 
L 323.1 232.2 
" clip-path="url(#p4d6b244b47)" style="fill: none; stroke: #b0b0b0; stroke-opacity: 0.3; stroke-width: 0.8; stroke-linecap: square"/>
     </g>
     <g id="line2d_14">
      <g>
       <use xlink:href="#m3bd8406852" x="45.9" y="232.2" style="stroke: #000000; stroke-width: 0.8"/>
      </g>
     </g>
     <g id="text_8">
      <!-- −20 -->
      <g transform="translate(17.795312 235.999219) scale(0.1 -0.1)">
       <use xlink:href="#DejaVuSans-2212"/>
       <use xlink:href="#DejaVuSans-32" x="83.789062"/>
       <use xlink:href="#DejaVuSans-30" x="147.412109"/>
      </g>
     </g>
    </g>
    <g id="ytick_3">
     <g id="line2d_15">
      <path d="M 45.9 181.8 
L 323.1 181.8 
" clip-path="url(#p4d6b244b47)" style="fill: none; stroke: #b0b0b0; stroke-opacity: 0.3; stroke-width: 0.8; stroke-linecap: square"/>
     </g>
     <g id="line2d_16">
      <g>
       <use xlink:href="#m3bd8406852" x="45.9" y="181.8" style="stroke: #000000; stroke-width: 0.8"/>
      </g>
     </g>
     <g id="text_9">
      <!-- 0 -->
      <g transform="translate(32.5375 185.599219) scale(0.1 -0.1)">
       <use xlink:href="#DejaVuSans-30"/>
      </g>
     </g>
    </g>
    <g id="ytick_4">
     <g id="line2d_17">
      <path d="M 45.9 131.4 
L 323.1 131.4 
" clip-path="url(#p4d6b244b47)" style="fill: none; stroke: #b0b0b0; stroke-opacity: 0.3; stroke-width: 0.8; stroke-linecap: square"/>
     </g>
     <g id="line2d_18">
      <g>
       <use xlink:href="#m3bd8406852" x="45.9" y="131.4" style="stroke: #000000; stroke-width: 0.8"/>
      </g>
     </g>
     <g id="text_10">
      <!-- 20 -->
      <g transform="translate(26.175 135.199219) scale(0.1 -0.1)">
       <use xlink:href="#DejaVuSans-32"/>
       <use xlink:href="#DejaVuSans-30" x="63.623047"/>
      </g>
     </g>
    </g>
    <g id="ytick_5">
     <g id="line2d_19">
      <path d="M 45.9 81 
L 323.1 81 
" clip-path="url(#p4d6b244b47)" style="fill: none; stroke: #b0b0b0; stroke-opacity: 0.3; stroke-width: 0.8; stroke-linecap: square"/>
     </g>
     <g id="line2d_20">
      <g>
       <use xlink:href="#m3bd8406852" x="45.9" y="81" style="stroke: #000000; stroke-width: 0.8"/>
      </g>
     </g>
     <g id="text_11">
      <!-- 40 -->
      <g transform="translate(26.175 84.799219) scale(0.1 -0.1)">
       <use xlink:href="#DejaVuSans-34"/>
       <use xlink:href="#DejaVuSans-30" x="63.623047"/>
      </g>
     </g>
    </g>
    <g id="text_12">
     <!-- Y Position -->
     <g transform="translate(11.715625 205.907031) rotate(-90) scale(0.1 -0.1)">
      <defs>
       <path id="DejaVuSans-59" d="M -13 4666 
L 666 4666 
L 1959 2747 
L 3244 4666 
L 3922 4666 
L 2272 2222 
L 2272 0 
L 1638 0 
L 1638 2222 
L -13 4666 
z
" transform="scale(0.015625)"/>
      </defs>
      <use xlink:href="#DejaVuSans-59"/>
      <use xlink:href="#DejaVuSans-20" x="61.083984"/>
      <use xlink:href="#DejaVuSans-50" x="92.871094"/>
      <use xlink:href="#DejaVuSans-6f" x="149.548828"/>
      <use xlink:href="#DejaVuSans-73" x="210.730469"/>
      <use xlink:href="#DejaVuSans-69" x="262.830078"/>
      <use xlink:href="#DejaVuSans-74" x="290.613281"/>
      <use xlink:href="#DejaVuSans-69" x="329.822266"/>
      <use xlink:href="#DejaVuSans-6f" x="357.605469"/>
      <use xlink:href="#DejaVuSans-6e" x="418.787109"/>
     </g>
    </g>
   </g>
   <g id="LineCollection_1">
    <path d="M 58.5 320.4 
L 58.5 43.2 
" clip-path="url(#p4d6b244b47)" style="fill: none; stroke-dasharray: 5.55,2.4; stroke-dashoffset: 0; stroke: #000000; stroke-opacity: 0.3; stroke-width: 1.5"/>
    <path d="M 310.5 320.4 
L 310.5 43.2 
" clip-path="url(#p4d6b244b47)" style="fill: none; stroke-dasharray: 5.55,2.4; stroke-dashoffset: 0; stroke: #000000; stroke-opacity: 0.3; stroke-width: 1.5"/>
   </g>
   <g id="LineCollection_2">
    <path d="M 45.9 307.8 
L 323.1 307.8 
" clip-path="url(#p4d6b244b47)" style="fill: none; stroke-dasharray: 5.55,2.4; stroke-dashoffset: 0; stroke: #000000; stroke-opacity: 0.3; stroke-width: 1.5"/>
    <path d="M 45.9 55.8 
L 323.1 55.8 
" clip-path="url(#p4d6b244b47)" style="fill: none; stroke-dasharray: 5.55,2.4; stroke-dashoffset: 0; stroke: #000000; stroke-opacity: 0.3; stroke-width: 1.5"/>
   </g>
   <g id="line2d_21">
    <path d="M 224.820025 113.76 
L 214.740025 98.64 
" clip-path="url(#p4d6b244b47)" style="fill: none; stroke: #000000; stroke-opacity: 0.3; stroke-width: 1.5; stroke-linecap: square"/>
   </g>
   <g id="line2d_22">
    <path d="M 214.740025 98.64 
L 214.74 118.8 
" clip-path="url(#p4d6b244b47)" style="fill: none; stroke: #000000; stroke-opacity: 0.3; stroke-width: 1.5; stroke-linecap: square"/>
   </g>
   <g id="line2d_23">
    <path d="M 214.74 118.8 
L 222.3 136.44 
" clip-path="url(#p4d6b244b47)" style="fill: none; stroke: #000000; stroke-opacity: 0.3; stroke-width: 1.5; stroke-linecap: square"/>
   </g>
   <g id="line2d_24">
    <path d="M 222.3 136.44 
L 232.38 144 
" clip-path="url(#p4d6b244b47)" style="fill: none; stroke: #000000; stroke-opacity: 0.3; stroke-width: 1.5; stroke-linecap: square"/>
   </g>
   <g id="line2d_25">
    <path d="M 232.38 144 
L 234.9 154.08 
" clip-path="url(#p4d6b244b47)" style="fill: none; stroke: #000000; stroke-opacity: 0.3; stroke-width: 1.5; stroke-linecap: square"/>
   </g>
   <g id="line2d_26">
    <path d="M 234.9 154.08 
L 237.42 179.28 
" clip-path="url(#p4d6b244b47)" style="fill: none; stroke: #000000; stroke-opacity: 0.3; stroke-width: 1.5; stroke-linecap: square"/>
   </g>
   <g id="line2d_27">
    <path d="M 237.42 179.28 
L 234.9 194.4 
" clip-path="url(#p4d6b244b47)" style="fill: none; stroke: #000000; stroke-opacity: 0.3; stroke-width: 1.5; stroke-linecap: square"/>
   </g>
   <g id="line2d_28">
    <path d="M 234.9 194.4 
L 181.98 191.88 
" clip-path="url(#p4d6b244b47)" style="fill: none; stroke: #000000; stroke-opacity: 0.3; stroke-width: 1.5; stroke-linecap: square"/>
   </g>
   <g id="line2d_29">
    <path d="M 181.98 191.88 
L 192.06 207 
" clip-path="url(#p4d6b244b47)" style="fill: none; stroke: #000000; stroke-opacity: 0.3; stroke-width: 1.5; stroke-linecap: square"/>
   </g>
   <g id="line2d_30">
    <path d="M 192.06 207 
L 212.22 201.96 
" clip-path="url(#p4d6b244b47)" style="fill: none; stroke: #000000; stroke-opacity: 0.3; stroke-width: 1.5; stroke-linecap: square"/>
   </g>
   <g id="line2d_31">
    <path d="M 212.22 201.96 
L 212.22 214.56 
" clip-path="url(#p4d6b244b47)" style="fill: none; stroke: #000000; stroke-opacity: 0.3; stroke-width: 1.5; stroke-linecap: square"/>
   </g>
   <g id="text_13">
    <!-- 0 -->
    <g style="opacity: 0.5" transform="translate(214.740025 98.64) scale(0.08 -0.08)">
     <use xlink:href="#DejaVuSans-30"/>
    </g>
   </g>
   <g id="text_14">
    <!-- 0 -->
    <g style="opacity: 0.5" transform="translate(214.826146 111.239706) scale(0.08 -0.08)">
     <use xlink:href="#DejaVuSans-30"/>
    </g>
   </g>
   <g id="text_15">
    <!-- 1 -->
    <g style="opacity: 0.5" transform="translate(186.887237 121.792852) scale(0.08 -0.08)">
     <defs>
      <path id="DejaVuSans-31" d="M 794 531 
L 1825 531 
L 1825 4091 
L 703 3866 
L 703 4441 
L 1819 4666 
L 2450 4666 
L 2450 531 
L 3481 531 
L 3481 0 
L 794 0 
L 794 531 
z
" transform="scale(0.015625)"/>
     </defs>
     <use xlink:href="#DejaVuSans-31"/>
    </g>
   </g>
   <g id="text_16">
    <!-- 2 -->
    <g style="opacity: 0.5" transform="translate(184.896533 132.616287) scale(0.08 -0.08)">
     <use xlink:href="#DejaVuSans-32"/>
    </g>
   </g>
   <g id="text_17">
    <!-- 3 -->
    <g style="opacity: 0.5" transform="translate(189.184491 143.787506) scale(0.08 -0.08)">
     <defs>
      <path id="DejaVuSans-33" d="M 2597 2516 
Q 3050 2419 3304 2112 
Q 3559 1806 3559 1356 
Q 3559 666 3084 287 
Q 2609 -91 1734 -91 
Q 1441 -91 1130 -33 
Q 819 25 488 141 
L 488 750 
Q 750 597 1062 519 
Q 1375 441 1716 441 
Q 2309 441 2620 675 
Q 2931 909 2931 1356 
Q 2931 1769 2642 2001 
Q 2353 2234 1838 2234 
L 1294 2234 
L 1294 2753 
L 1863 2753 
Q 2328 2753 2575 2939 
Q 2822 3125 2822 3475 
Q 2822 3834 2567 4026 
Q 2313 4219 1838 4219 
Q 1578 4219 1281 4162 
Q 984 4106 628 3988 
L 628 4550 
Q 988 4650 1302 4700 
Q 1616 4750 1894 4750 
Q 2613 4750 3031 4423 
Q 3450 4097 3450 3541 
Q 3450 3153 3228 2886 
Q 3006 2619 2597 2516 
z
" transform="scale(0.015625)"/>
     </defs>
     <use xlink:href="#DejaVuSans-33"/>
    </g>
   </g>
   <g id="text_18">
    <!-- 4 -->
    <g style="opacity: 0.5" transform="translate(197.229166 155.054625) scale(0.08 -0.08)">
     <use xlink:href="#DejaVuSans-34"/>
    </g>
   </g>
   <g id="text_19">
    <!-- 5 -->
    <g style="opacity: 0.5" transform="translate(201.050286 166.142) scale(0.08 -0.08)">
     <defs>
      <path id="DejaVuSans-35" d="M 691 4666 
L 3169 4666 
L 3169 4134 
L 1269 4134 
L 1269 2991 
Q 1406 3038 1543 3061 
Q 1681 3084 1819 3084 
Q 2600 3084 3056 2656 
Q 3513 2228 3513 1497 
Q 3513 744 3044 326 
Q 2575 -91 1722 -91 
Q 1428 -91 1123 -41 
Q 819 9 494 109 
L 494 744 
Q 775 591 1075 516 
Q 1375 441 1709 441 
Q 2250 441 2565 725 
Q 2881 1009 2881 1497 
Q 2881 1984 2565 2268 
Q 2250 2553 1709 2553 
Q 1456 2553 1204 2497 
Q 953 2441 691 2322 
L 691 4666 
z
" transform="scale(0.015625)"/>
     </defs>
     <use xlink:href="#DejaVuSans-35"/>
    </g>
   </g>
   <g id="text_20">
    <!-- 6 -->
    <g style="opacity: 0.5" transform="translate(212.034438 177.484917) scale(0.08 -0.08)">
     <defs>
      <path id="DejaVuSans-36" d="M 2113 2584 
Q 1688 2584 1439 2293 
Q 1191 2003 1191 1497 
Q 1191 994 1439 701 
Q 1688 409 2113 409 
Q 2538 409 2786 701 
Q 3034 994 3034 1497 
Q 3034 2003 2786 2293 
Q 2538 2584 2113 2584 
z
M 3366 4563 
L 3366 3988 
Q 3128 4100 2886 4159 
Q 2644 4219 2406 4219 
Q 1781 4219 1451 3797 
Q 1122 3375 1075 2522 
Q 1259 2794 1537 2939 
Q 1816 3084 2150 3084 
Q 2853 3084 3261 2657 
Q 3669 2231 3669 1497 
Q 3669 778 3244 343 
Q 2819 -91 2113 -91 
Q 1303 -91 875 529 
Q 447 1150 447 2328 
Q 447 3434 972 4092 
Q 1497 4750 2381 4750 
Q 2619 4750 2861 4703 
Q 3103 4656 3366 4563 
z
" transform="scale(0.015625)"/>
     </defs>
     <use xlink:href="#DejaVuSans-36"/>
    </g>
   </g>
   <g id="text_21">
    <!-- 7 -->
    <g style="opacity: 0.5" transform="translate(231.092554 187.822534) scale(0.08 -0.08)">
     <defs>
      <path id="DejaVuSans-37" d="M 525 4666 
L 3525 4666 
L 3525 4397 
L 1831 0 
L 1172 0 
L 2766 4134 
L 525 4134 
L 525 4666 
z
" transform="scale(0.015625)"/>
     </defs>
     <use xlink:href="#DejaVuSans-37"/>
    </g>
   </g>
   <g id="text_22">
    <!-- 8 -->
    <g style="opacity: 0.5" transform="translate(194.637889 198.339342) scale(0.08 -0.08)">
     <defs>
      <path id="DejaVuSans-38" d="M 2034 2216 
Q 1584 2216 1326 1975 
Q 1069 1734 1069 1313 
Q 1069 891 1326 650 
Q 1584 409 2034 409 
Q 2484 409 2743 651 
Q 3003 894 3003 1313 
Q 3003 1734 2745 1975 
Q 2488 2216 2034 2216 
z
M 1403 2484 
Q 997 2584 770 2862 
Q 544 3141 544 3541 
Q 544 4100 942 4425 
Q 1341 4750 2034 4750 
Q 2731 4750 3128 4425 
Q 3525 4100 3525 3541 
Q 3525 3141 3298 2862 
Q 3072 2584 2669 2484 
Q 3125 2378 3379 2068 
Q 3634 1759 3634 1313 
Q 3634 634 3220 271 
Q 2806 -91 2034 -91 
Q 1263 -91 848 271 
Q 434 634 434 1313 
Q 434 1759 690 2068 
Q 947 2378 1403 2484 
z
M 1172 3481 
Q 1172 3119 1398 2916 
Q 1625 2713 2034 2713 
Q 2441 2713 2670 2916 
Q 2900 3119 2900 3481 
Q 2900 3844 2670 4047 
Q 2441 4250 2034 4250 
Q 1625 4250 1398 4047 
Q 1172 3844 1172 3481 
z
" transform="scale(0.015625)"/>
     </defs>
     <use xlink:href="#DejaVuSans-38"/>
    </g>
   </g>
   <g id="text_23">
    <!-- 9 -->
    <g style="opacity: 0.5" transform="translate(188.852204 211.476507) scale(0.08 -0.08)">
     <defs>
      <path id="DejaVuSans-39" d="M 703 97 
L 703 672 
Q 941 559 1184 500 
Q 1428 441 1663 441 
Q 2288 441 2617 861 
Q 2947 1281 2994 2138 
Q 2813 1869 2534 1725 
Q 2256 1581 1919 1581 
Q 1219 1581 811 2004 
Q 403 2428 403 3163 
Q 403 3881 828 4315 
Q 1253 4750 1959 4750 
Q 2769 4750 3195 4129 
Q 3622 3509 3622 2328 
Q 3622 1225 3098 567 
Q 2575 -91 1691 -91 
Q 1453 -91 1209 -44 
Q 966 3 703 97 
z
M 1959 2075 
Q 2384 2075 2632 2365 
Q 2881 2656 2881 3163 
Q 2881 3666 2632 3958 
Q 2384 4250 1959 4250 
Q 1534 4250 1286 3958 
Q 1038 3666 1038 3163 
Q 1038 2656 1286 2365 
Q 1534 2075 1959 2075 
z
" transform="scale(0.015625)"/>
     </defs>
     <use xlink:href="#DejaVuSans-39"/>
    </g>
   </g>
   <g id="text_24">
    <!-- 10 -->
    <g style="opacity: 0.5" transform="translate(200.204682 224.626773) scale(0.08 -0.08)">
     <use xlink:href="#DejaVuSans-31"/>
     <use xlink:href="#DejaVuSans-30" x="63.623047"/>
    </g>
   </g>
  </g>
 </g>
 <defs>
  <clipPath id="p4d6b244b47">
   <rect x="45.9" y="43.2" width="277.2" height="277.2"/>
  </clipPath>
 </defs>
</svg>
